<!-- <svg width="596" height="657" viewBox="0 0 596 657" fill="none" xmlns="http://www.w3.org/2000/svg">
<path d="M175.594 137.421C163.073 137.421 152.69 127.038 152.69 114.518V22.9036C152.69 10.383 163.073 0 175.594 0C188.115 0 198.498 10.383 198.498 22.9036V114.518C198.498 127.038 188.115 137.421 175.594 137.421Z" fill="#FF3996"/>
<path d="M419.899 137.421C407.378 137.421 396.995 127.038 396.995 114.518V22.9036C396.995 10.383 407.378 0 419.899 0C432.419 0 442.802 10.383 442.802 22.9036V114.518C442.802 127.038 432.419 137.421 419.899 137.421Z" fill="#FF3996"/>
<path d="M389.361 381.726H145.056C132.535 381.726 122.152 371.343 122.152 358.823C122.152 346.302 132.535 335.919 145.056 335.919H389.361C401.881 335.919 412.264 346.302 412.264 358.823C412.264 371.343 401.881 381.726 389.361 381.726Z" fill="#FF3996"/>
<path d="M297.746 503.878H145.056C132.535 503.878 122.152 493.495 122.152 480.975C122.152 468.454 132.535 458.071 145.056 458.071H297.746C310.267 458.071 320.65 468.454 320.65 480.975C320.65 493.495 310.267 503.878 297.746 503.878Z" fill="#FF3996"/>
<path d="M389.361 656.569H206.132C34.5081 656.569 0 575.643 0 444.94V256.52C0 111.769 48.861 52.8309 174.373 45.8071H419.899H421.12C546.632 52.8309 595.493 111.769 595.493 256.52V444.94C595.493 575.643 560.985 656.569 389.361 656.569ZM175.594 91.6143C90.0874 96.5004 45.8071 123.374 45.8071 256.52V444.94C45.8071 561.901 68.1 610.762 206.132 610.762H389.361C527.393 610.762 549.686 561.901 549.686 444.94V256.52C549.686 123.679 505.711 96.5004 419.288 91.6143H175.594Z" fill="#FF3996"/>
</svg> -->


<svg width="596" height="687" viewBox="0 0 596 687" fill="none" xmlns="http://www.w3.org/2000/svg">
<path d="M190.227 74.4366V24.8122C190.227 11.2482 178.979 0 165.415 0C151.851 0 140.603 11.2482 140.603 24.8122V76.4216C148.873 75.4291 156.482 74.4366 165.415 74.4366H190.227Z" fill="#FF3996"/>
<path d="M454.891 76.4216V24.8122C454.891 11.2482 443.642 0 430.078 0C416.514 0 405.266 11.2482 405.266 24.8122V74.4366H430.078C439.011 74.4366 446.62 75.4291 454.891 76.4216Z" fill="#FF3996"/>
<path d="M454.89 76.4215V124.061C454.89 137.625 443.642 148.873 430.078 148.873C416.514 148.873 405.266 137.625 405.266 124.061V74.4365H190.227V124.061C190.227 137.625 178.979 148.873 165.415 148.873C151.851 148.873 140.602 137.625 140.602 124.061V76.4215C43.0078 85.3539 0 148.211 0 239.851V521.056C0 620.305 49.6244 686.471 165.415 686.471H430.078C545.868 686.471 595.493 620.305 595.493 521.056V239.851C595.493 148.211 552.485 85.3539 454.89 76.4215ZM297.746 512.786H165.415C151.851 512.786 140.602 501.537 140.602 487.973C140.602 474.409 151.851 463.161 165.415 463.161H297.746C311.31 463.161 322.559 474.409 322.559 487.973C322.559 501.537 311.31 512.786 297.746 512.786ZM430.078 347.371H165.415C151.851 347.371 140.602 336.123 140.602 322.559C140.602 308.995 151.851 297.746 165.415 297.746H430.078C443.642 297.746 454.89 308.995 454.89 322.559C454.89 336.123 443.642 347.371 430.078 347.371Z" fill="#FF3996"/>
</svg>
