<svg width="382" height="382" viewBox="0 0 382 382" fill="none" xmlns="http://www.w3.org/2000/svg">
<path d="M190.951 381.903C296.411 381.903 381.903 296.411 381.903 190.951C381.903 85.4919 296.411 0 190.951 0C85.4919 0 0 85.4919 0 190.951C0 296.411 85.4919 381.903 190.951 381.903Z" fill="#FFDD67"/>
<path d="M117.753 188.405C135.33 188.405 149.579 174.157 149.579 156.58C149.579 139.003 135.33 124.755 117.753 124.755C100.177 124.755 85.9282 139.003 85.9282 156.58C85.9282 174.157 100.177 188.405 117.753 188.405Z" fill="#664E27"/>
<path d="M264.149 188.405C281.726 188.405 295.975 174.157 295.975 156.58C295.975 139.003 281.726 124.755 264.149 124.755C246.573 124.755 232.324 139.003 232.324 156.58C232.324 174.157 246.573 188.405 264.149 188.405Z" fill="#664E27"/>
<path d="M271.152 243.781C219.595 280.062 162.309 279.426 110.752 243.781C104.387 239.326 99.2952 246.964 103.114 253.965C119.027 279.426 150.216 302.976 190.952 302.976C231.688 302.976 262.877 280.062 278.79 253.965C282.609 246.964 277.517 239.326 271.152 243.781Z" fill="#664E27"/>
</svg>
