<svg width="41" height="41" viewBox="0 0 41 41" fill="none" xmlns="http://www.w3.org/2000/svg">
<path fill-rule="evenodd" clip-rule="evenodd" d="M20.7763 40.097C31.8221 40.097 40.7763 31.1427 40.7763 20.097C40.7763 9.05136 31.8221 0.0970612 20.7763 0.0970612C9.73066 0.0970612 0.776367 9.05136 0.776367 20.097C0.776367 31.1427 9.73066 40.097 20.7763 40.097ZM23.8633 15.5496C25.5681 13.8447 25.5681 11.0806 23.8633 9.37572C22.1584 7.67084 19.3943 7.67084 17.6894 9.37572C15.9846 11.0806 15.9846 13.8447 17.6894 15.5496L20.7763 18.6365L23.8633 15.5496ZM25.3238 23.184C27.0287 24.8889 29.7928 24.8889 31.4977 23.184C33.2025 21.4791 33.2025 18.715 31.4977 17.0101C29.7928 15.3053 27.0287 15.3053 25.3238 17.0101L22.2369 20.0971L25.3238 23.184ZM23.8633 30.8184C25.5681 29.1135 25.5681 26.3494 23.8633 24.6445L20.7763 21.5576L17.6894 24.6445C15.9846 26.3494 15.9846 29.1135 17.6894 30.8184C19.3943 32.5233 22.1584 32.5233 23.8633 30.8184ZM10.055 23.184C8.35016 21.4791 8.35016 18.715 10.055 17.0101C11.7599 15.3053 14.524 15.3053 16.2289 17.0101L19.3158 20.0971L16.2289 23.184C14.524 24.8889 11.7599 24.8889 10.055 23.184Z" fill="#FDFBE9"/>
</svg>
