<svg xmlns="http://www.w3.org/2000/svg" xmlns:xlink="http://www.w3.org/1999/xlink" width="400" zoomAndPan="magnify" viewBox="0 0 300 149.999998" height="200" preserveAspectRatio="xMidYMid meet" version="1.0"><defs><g/><clipPath id="8d9ea9699a"><path d="M 11.289062 18.207031 L 131 18.207031 L 131 138.441406 L 11.289062 138.441406 Z M 11.289062 18.207031 " clip-rule="nonzero"/></clipPath><clipPath id="71e693e9b1"><path d="M 28.539062 18.207031 L 113.871094 18.207031 C 118.445312 18.207031 122.832031 20.027344 126.066406 23.261719 C 129.304688 26.496094 131.121094 30.882812 131.121094 35.457031 L 131.121094 120.890625 C 131.121094 125.464844 129.304688 129.855469 126.066406 133.089844 C 122.832031 136.324219 118.445312 138.140625 113.871094 138.140625 L 28.539062 138.140625 C 23.960938 138.140625 19.574219 136.324219 16.339844 133.089844 C 13.105469 129.855469 11.289062 125.464844 11.289062 120.890625 L 11.289062 35.457031 C 11.289062 30.882812 13.105469 26.496094 16.339844 23.261719 C 19.574219 20.027344 23.960938 18.207031 28.539062 18.207031 " clip-rule="nonzero"/></clipPath></defs><g clip-path="url(#8d9ea9699a)"><g clip-path="url(#71e693e9b1)"><path fill="#fdfbe9" d="M 11.289062 18.207031 L 130.820312 18.207031 L 130.820312 138.441406 L 11.289062 138.441406 Z M 11.289062 18.207031 " fill-opacity="1" fill-rule="nonzero"/></g></g><g fill="#746057" fill-opacity="1"><g transform="translate(46.197081, 114.999971)"><g><path d="M 25.203125 0.796875 C 18.929688 0.796875 13.945312 -0.847656 10.25 -4.140625 C 6.550781 -7.441406 4.703125 -11.863281 4.703125 -17.40625 L 4.703125 -20.09375 C 4.703125 -20.757812 5.035156 -21.09375 5.703125 -21.09375 L 10.59375 -21.09375 C 11.257812 -21.09375 11.59375 -20.757812 11.59375 -20.09375 L 11.59375 -17.796875 C 11.59375 -14.066406 12.859375 -11.066406 15.390625 -8.796875 C 17.929688 -6.535156 21.300781 -5.40625 25.5 -5.40625 C 29.4375 -5.40625 32.535156 -6.46875 34.796875 -8.59375 C 37.066406 -10.726562 38.203125 -13.53125 38.203125 -17 C 38.203125 -19.269531 37.664062 -21.238281 36.59375 -22.90625 C 35.53125 -24.570312 33.960938 -26.101562 31.890625 -27.5 C 29.828125 -28.894531 26.863281 -30.660156 23 -32.796875 C 18.863281 -34.992188 15.613281 -36.925781 13.25 -38.59375 C 10.882812 -40.257812 8.96875 -42.289062 7.5 -44.6875 C 6.03125 -47.09375 5.296875 -50.03125 5.296875 -53.5 C 5.296875 -58.894531 7.03125 -63.125 10.5 -66.1875 C 13.96875 -69.257812 18.601562 -70.796875 24.40625 -70.796875 C 30.601562 -70.796875 35.535156 -69.09375 39.203125 -65.6875 C 42.867188 -62.289062 44.703125 -57.796875 44.703125 -52.203125 L 44.703125 -49.90625 C 44.703125 -49.238281 44.367188 -48.90625 43.703125 -48.90625 L 38.703125 -48.90625 C 38.035156 -48.90625 37.703125 -49.238281 37.703125 -49.90625 L 37.703125 -52.09375 C 37.703125 -55.832031 36.5 -58.847656 34.09375 -61.140625 C 31.695312 -63.441406 28.398438 -64.59375 24.203125 -64.59375 C 20.460938 -64.59375 17.539062 -63.625 15.4375 -61.6875 C 13.34375 -59.757812 12.296875 -57.03125 12.296875 -53.5 C 12.296875 -51.226562 12.796875 -49.328125 13.796875 -47.796875 C 14.796875 -46.265625 16.242188 -44.863281 18.140625 -43.59375 C 20.046875 -42.332031 22.96875 -40.632812 26.90625 -38.5 C 31.4375 -35.96875 34.914062 -33.816406 37.34375 -32.046875 C 39.78125 -30.285156 41.710938 -28.253906 43.140625 -25.953125 C 44.578125 -23.648438 45.296875 -20.832031 45.296875 -17.5 C 45.296875 -11.894531 43.492188 -7.441406 39.890625 -4.140625 C 36.296875 -0.847656 31.398438 0.796875 25.203125 0.796875 Z M 25.203125 0.796875 "/></g></g></g><g fill="#fdfbe9" fill-opacity="1"><g transform="translate(141.688149, 49.124999)"><g><path d="M 8.0625 0.25 C 6.0625 0.25 4.46875 -0.273438 3.28125 -1.328125 C 2.09375 -2.378906 1.5 -3.789062 1.5 -5.5625 L 1.5 -6.4375 C 1.5 -6.644531 1.609375 -6.75 1.828125 -6.75 L 3.390625 -6.75 C 3.609375 -6.75 3.71875 -6.644531 3.71875 -6.4375 L 3.71875 -5.703125 C 3.71875 -4.503906 4.117188 -3.539062 4.921875 -2.8125 C 5.734375 -2.09375 6.8125 -1.734375 8.15625 -1.734375 C 9.414062 -1.734375 10.40625 -2.070312 11.125 -2.75 C 11.851562 -3.4375 12.21875 -4.332031 12.21875 -5.4375 C 12.21875 -6.164062 12.046875 -6.796875 11.703125 -7.328125 C 11.367188 -7.859375 10.867188 -8.347656 10.203125 -8.796875 C 9.546875 -9.242188 8.597656 -9.8125 7.359375 -10.5 C 6.035156 -11.195312 4.992188 -11.8125 4.234375 -12.34375 C 3.484375 -12.882812 2.875 -13.535156 2.40625 -14.296875 C 1.9375 -15.066406 1.703125 -16.007812 1.703125 -17.125 C 1.703125 -18.851562 2.253906 -20.207031 3.359375 -21.1875 C 4.472656 -22.164062 5.957031 -22.65625 7.8125 -22.65625 C 9.789062 -22.65625 11.363281 -22.109375 12.53125 -21.015625 C 13.707031 -19.929688 14.296875 -18.492188 14.296875 -16.703125 L 14.296875 -15.96875 C 14.296875 -15.75 14.191406 -15.640625 13.984375 -15.640625 L 12.390625 -15.640625 C 12.171875 -15.640625 12.0625 -15.75 12.0625 -15.96875 L 12.0625 -16.671875 C 12.0625 -17.867188 11.675781 -18.832031 10.90625 -19.5625 C 10.144531 -20.300781 9.09375 -20.671875 7.75 -20.671875 C 6.550781 -20.671875 5.613281 -20.359375 4.9375 -19.734375 C 4.269531 -19.117188 3.9375 -18.25 3.9375 -17.125 C 3.9375 -16.394531 4.09375 -15.785156 4.40625 -15.296875 C 4.726562 -14.804688 5.191406 -14.359375 5.796875 -13.953125 C 6.410156 -13.546875 7.347656 -13 8.609375 -12.3125 C 10.054688 -11.507812 11.171875 -10.820312 11.953125 -10.25 C 12.734375 -9.6875 13.351562 -9.035156 13.8125 -8.296875 C 14.269531 -7.566406 14.5 -6.664062 14.5 -5.59375 C 14.5 -3.800781 13.921875 -2.378906 12.765625 -1.328125 C 11.617188 -0.273438 10.050781 0.25 8.0625 0.25 Z M 8.0625 0.25 "/></g></g></g><g fill="#fdfbe9" fill-opacity="1"><g transform="translate(157.684218, 49.124999)"><g><path d="M 14.96875 -20.734375 C 14.96875 -20.523438 14.863281 -20.421875 14.65625 -20.421875 L 5.0625 -20.421875 C 4.96875 -20.421875 4.921875 -20.375 4.921875 -20.28125 L 4.921875 -12.359375 C 4.921875 -12.265625 4.96875 -12.21875 5.0625 -12.21875 L 11.515625 -12.21875 C 11.734375 -12.21875 11.84375 -12.113281 11.84375 -11.90625 L 11.84375 -10.5625 C 11.84375 -10.34375 11.734375 -10.234375 11.515625 -10.234375 L 5.0625 -10.234375 C 4.96875 -10.234375 4.921875 -10.191406 4.921875 -10.109375 L 4.921875 -2.109375 C 4.921875 -2.023438 4.96875 -1.984375 5.0625 -1.984375 L 14.65625 -1.984375 C 14.863281 -1.984375 14.96875 -1.875 14.96875 -1.65625 L 14.96875 -0.3125 C 14.96875 -0.101562 14.863281 0 14.65625 0 L 2.96875 0 C 2.757812 0 2.65625 -0.101562 2.65625 -0.3125 L 2.65625 -22.078125 C 2.65625 -22.296875 2.757812 -22.40625 2.96875 -22.40625 L 14.65625 -22.40625 C 14.863281 -22.40625 14.96875 -22.296875 14.96875 -22.078125 Z M 14.96875 -20.734375 "/></g></g></g><g fill="#fdfbe9" fill-opacity="1"><g transform="translate(174.224157, 49.124999)"><g><path d="M 13.796875 -22.078125 C 13.796875 -22.296875 13.898438 -22.40625 14.109375 -22.40625 L 15.75 -22.40625 C 15.957031 -22.40625 16.0625 -22.296875 16.0625 -22.078125 L 16.0625 -0.3125 C 16.0625 -0.101562 15.957031 0 15.75 0 L 14.015625 0 C 13.828125 0 13.695312 -0.0703125 13.625 -0.21875 L 5.0625 -17.34375 C 5.007812 -17.382812 4.96875 -17.40625 4.9375 -17.40625 C 4.90625 -17.40625 4.890625 -17.375 4.890625 -17.3125 L 4.921875 -0.3125 C 4.921875 -0.101562 4.816406 0 4.609375 0 L 2.96875 0 C 2.757812 0 2.65625 -0.101562 2.65625 -0.3125 L 2.65625 -22.078125 C 2.65625 -22.296875 2.757812 -22.40625 2.96875 -22.40625 L 4.703125 -22.40625 C 4.890625 -22.40625 5.019531 -22.328125 5.09375 -22.171875 L 13.65625 -4.984375 C 13.707031 -4.941406 13.75 -4.921875 13.78125 -4.921875 C 13.8125 -4.921875 13.828125 -4.957031 13.828125 -5.03125 Z M 13.796875 -22.078125 "/></g></g></g><g fill="#fdfbe9" fill-opacity="1"><g transform="translate(192.939561, 49.124999)"><g><path d="M 14.296875 -22.40625 C 14.515625 -22.40625 14.625 -22.296875 14.625 -22.078125 L 14.625 -20.734375 C 14.625 -20.523438 14.515625 -20.421875 14.296875 -20.421875 L 9.09375 -20.421875 C 9 -20.421875 8.953125 -20.375 8.953125 -20.28125 L 8.953125 -0.3125 C 8.953125 -0.101562 8.847656 0 8.640625 0 L 7.015625 0 C 6.796875 0 6.6875 -0.101562 6.6875 -0.3125 L 6.6875 -20.28125 C 6.6875 -20.375 6.644531 -20.421875 6.5625 -20.421875 L 1.53125 -20.421875 C 1.320312 -20.421875 1.21875 -20.523438 1.21875 -20.734375 L 1.21875 -22.078125 C 1.21875 -22.296875 1.320312 -22.40625 1.53125 -22.40625 Z M 14.296875 -22.40625 "/></g></g></g><g fill="#fdfbe9" fill-opacity="1"><g transform="translate(208.807663, 49.124999)"><g><path d="M 2.96875 0 C 2.757812 0 2.65625 -0.101562 2.65625 -0.3125 L 2.65625 -22.078125 C 2.65625 -22.296875 2.757812 -22.40625 2.96875 -22.40625 L 4.609375 -22.40625 C 4.816406 -22.40625 4.921875 -22.296875 4.921875 -22.078125 L 4.921875 -0.3125 C 4.921875 -0.101562 4.816406 0 4.609375 0 Z M 2.96875 0 "/></g></g></g><g fill="#fdfbe9" fill-opacity="1"><g transform="translate(216.389797, 49.124999)"><g><path d="M 14.78125 -22.171875 C 14.882812 -22.328125 15.015625 -22.40625 15.171875 -22.40625 L 16.828125 -22.40625 C 17.046875 -22.40625 17.15625 -22.296875 17.15625 -22.078125 L 17.15625 -0.3125 C 17.15625 -0.101562 17.046875 0 16.828125 0 L 15.203125 0 C 14.984375 0 14.875 -0.101562 14.875 -0.3125 L 14.875 -17.734375 C 14.875 -17.796875 14.851562 -17.835938 14.8125 -17.859375 C 14.769531 -17.878906 14.738281 -17.859375 14.71875 -17.796875 L 10.46875 -10.40625 C 10.351562 -10.25 10.222656 -10.171875 10.078125 -10.171875 L 9.734375 -10.171875 C 9.578125 -10.171875 9.445312 -10.25 9.34375 -10.40625 L 5.0625 -17.765625 C 5.039062 -17.828125 5.003906 -17.847656 4.953125 -17.828125 C 4.910156 -17.804688 4.890625 -17.765625 4.890625 -17.703125 L 4.890625 -0.3125 C 4.890625 -0.101562 4.785156 0 4.578125 0 L 2.9375 0 C 2.726562 0 2.625 -0.101562 2.625 -0.3125 L 2.625 -22.078125 C 2.625 -22.296875 2.726562 -22.40625 2.9375 -22.40625 L 4.609375 -22.40625 C 4.753906 -22.40625 4.878906 -22.328125 4.984375 -22.171875 L 9.828125 -13.953125 C 9.847656 -13.929688 9.878906 -13.921875 9.921875 -13.921875 C 9.960938 -13.921875 9.992188 -13.929688 10.015625 -13.953125 Z M 14.78125 -22.171875 "/></g></g></g><g fill="#fdfbe9" fill-opacity="1"><g transform="translate(236.16094, 49.124999)"><g><path d="M 14.96875 -20.734375 C 14.96875 -20.523438 14.863281 -20.421875 14.65625 -20.421875 L 5.0625 -20.421875 C 4.96875 -20.421875 4.921875 -20.375 4.921875 -20.28125 L 4.921875 -12.359375 C 4.921875 -12.265625 4.96875 -12.21875 5.0625 -12.21875 L 11.515625 -12.21875 C 11.734375 -12.21875 11.84375 -12.113281 11.84375 -11.90625 L 11.84375 -10.5625 C 11.84375 -10.34375 11.734375 -10.234375 11.515625 -10.234375 L 5.0625 -10.234375 C 4.96875 -10.234375 4.921875 -10.191406 4.921875 -10.109375 L 4.921875 -2.109375 C 4.921875 -2.023438 4.96875 -1.984375 5.0625 -1.984375 L 14.65625 -1.984375 C 14.863281 -1.984375 14.96875 -1.875 14.96875 -1.65625 L 14.96875 -0.3125 C 14.96875 -0.101562 14.863281 0 14.65625 0 L 2.96875 0 C 2.757812 0 2.65625 -0.101562 2.65625 -0.3125 L 2.65625 -22.078125 C 2.65625 -22.296875 2.757812 -22.40625 2.96875 -22.40625 L 14.65625 -22.40625 C 14.863281 -22.40625 14.96875 -22.296875 14.96875 -22.078125 Z M 14.96875 -20.734375 "/></g></g></g><g fill="#fdfbe9" fill-opacity="1"><g transform="translate(252.700879, 49.124999)"><g><path d="M 13.796875 -22.078125 C 13.796875 -22.296875 13.898438 -22.40625 14.109375 -22.40625 L 15.75 -22.40625 C 15.957031 -22.40625 16.0625 -22.296875 16.0625 -22.078125 L 16.0625 -0.3125 C 16.0625 -0.101562 15.957031 0 15.75 0 L 14.015625 0 C 13.828125 0 13.695312 -0.0703125 13.625 -0.21875 L 5.0625 -17.34375 C 5.007812 -17.382812 4.96875 -17.40625 4.9375 -17.40625 C 4.90625 -17.40625 4.890625 -17.375 4.890625 -17.3125 L 4.921875 -0.3125 C 4.921875 -0.101562 4.816406 0 4.609375 0 L 2.96875 0 C 2.757812 0 2.65625 -0.101562 2.65625 -0.3125 L 2.65625 -22.078125 C 2.65625 -22.296875 2.757812 -22.40625 2.96875 -22.40625 L 4.703125 -22.40625 C 4.890625 -22.40625 5.019531 -22.328125 5.09375 -22.171875 L 13.65625 -4.984375 C 13.707031 -4.941406 13.75 -4.921875 13.78125 -4.921875 C 13.8125 -4.921875 13.828125 -4.957031 13.828125 -5.03125 Z M 13.796875 -22.078125 "/></g></g></g><g fill="#fdfbe9" fill-opacity="1"><g transform="translate(271.416283, 49.124999)"><g><path d="M 14.296875 -22.40625 C 14.515625 -22.40625 14.625 -22.296875 14.625 -22.078125 L 14.625 -20.734375 C 14.625 -20.523438 14.515625 -20.421875 14.296875 -20.421875 L 9.09375 -20.421875 C 9 -20.421875 8.953125 -20.375 8.953125 -20.28125 L 8.953125 -0.3125 C 8.953125 -0.101562 8.847656 0 8.640625 0 L 7.015625 0 C 6.796875 0 6.6875 -0.101562 6.6875 -0.3125 L 6.6875 -20.28125 C 6.6875 -20.375 6.644531 -20.421875 6.5625 -20.421875 L 1.53125 -20.421875 C 1.320312 -20.421875 1.21875 -20.523438 1.21875 -20.734375 L 1.21875 -22.078125 C 1.21875 -22.296875 1.320312 -22.40625 1.53125 -22.40625 Z M 14.296875 -22.40625 "/></g></g></g><g fill="#fdfbe9" fill-opacity="1"><g transform="translate(287.28189, 49.124999)"><g/></g></g><g fill="#fdfbe9" fill-opacity="1"><g transform="translate(152.457679, 87.374997)"><g><path d="M 13.5 0 C 13.3125 0 13.195312 -0.09375 13.15625 -0.28125 L 12.09375 -4.28125 C 12.070312 -4.351562 12.019531 -4.390625 11.9375 -4.390625 L 4.28125 -4.390625 C 4.195312 -4.390625 4.144531 -4.351562 4.125 -4.28125 L 3.078125 -0.28125 C 3.035156 -0.09375 2.914062 0 2.71875 0 L 1.0625 0 C 0.945312 0 0.863281 -0.03125 0.8125 -0.09375 C 0.757812 -0.15625 0.742188 -0.242188 0.765625 -0.359375 L 6.75 -22.109375 C 6.789062 -22.304688 6.910156 -22.40625 7.109375 -22.40625 L 9.15625 -22.40625 C 9.34375 -22.40625 9.457031 -22.304688 9.5 -22.109375 L 15.484375 -0.359375 L 15.515625 -0.25 C 15.515625 -0.0820312 15.410156 0 15.203125 0 Z M 4.671875 -6.375 C 4.648438 -6.351562 4.65625 -6.320312 4.6875 -6.28125 C 4.71875 -6.25 4.753906 -6.234375 4.796875 -6.234375 L 11.421875 -6.234375 C 11.460938 -6.234375 11.5 -6.25 11.53125 -6.28125 C 11.5625 -6.320312 11.566406 -6.351562 11.546875 -6.375 L 8.15625 -19.234375 C 8.132812 -19.273438 8.113281 -19.296875 8.09375 -19.296875 C 8.070312 -19.296875 8.050781 -19.273438 8.03125 -19.234375 Z M 4.671875 -6.375 "/></g></g></g><g fill="#fdfbe9" fill-opacity="1"><g transform="translate(168.709685, 87.374997)"><g><path d="M 13.796875 -22.078125 C 13.796875 -22.296875 13.898438 -22.40625 14.109375 -22.40625 L 15.75 -22.40625 C 15.957031 -22.40625 16.0625 -22.296875 16.0625 -22.078125 L 16.0625 -0.3125 C 16.0625 -0.101562 15.957031 0 15.75 0 L 14.015625 0 C 13.828125 0 13.695312 -0.0703125 13.625 -0.21875 L 5.0625 -17.34375 C 5.007812 -17.382812 4.96875 -17.40625 4.9375 -17.40625 C 4.90625 -17.40625 4.890625 -17.375 4.890625 -17.3125 L 4.921875 -0.3125 C 4.921875 -0.101562 4.816406 0 4.609375 0 L 2.96875 0 C 2.757812 0 2.65625 -0.101562 2.65625 -0.3125 L 2.65625 -22.078125 C 2.65625 -22.296875 2.757812 -22.40625 2.96875 -22.40625 L 4.703125 -22.40625 C 4.890625 -22.40625 5.019531 -22.328125 5.09375 -22.171875 L 13.65625 -4.984375 C 13.707031 -4.941406 13.75 -4.921875 13.78125 -4.921875 C 13.8125 -4.921875 13.828125 -4.957031 13.828125 -5.03125 Z M 13.796875 -22.078125 "/></g></g></g><g fill="#fdfbe9" fill-opacity="1"><g transform="translate(187.425088, 87.374997)"><g><path d="M 13.5 0 C 13.3125 0 13.195312 -0.09375 13.15625 -0.28125 L 12.09375 -4.28125 C 12.070312 -4.351562 12.019531 -4.390625 11.9375 -4.390625 L 4.28125 -4.390625 C 4.195312 -4.390625 4.144531 -4.351562 4.125 -4.28125 L 3.078125 -0.28125 C 3.035156 -0.09375 2.914062 0 2.71875 0 L 1.0625 0 C 0.945312 0 0.863281 -0.03125 0.8125 -0.09375 C 0.757812 -0.15625 0.742188 -0.242188 0.765625 -0.359375 L 6.75 -22.109375 C 6.789062 -22.304688 6.910156 -22.40625 7.109375 -22.40625 L 9.15625 -22.40625 C 9.34375 -22.40625 9.457031 -22.304688 9.5 -22.109375 L 15.484375 -0.359375 L 15.515625 -0.25 C 15.515625 -0.0820312 15.410156 0 15.203125 0 Z M 4.671875 -6.375 C 4.648438 -6.351562 4.65625 -6.320312 4.6875 -6.28125 C 4.71875 -6.25 4.753906 -6.234375 4.796875 -6.234375 L 11.421875 -6.234375 C 11.460938 -6.234375 11.5 -6.25 11.53125 -6.28125 C 11.5625 -6.320312 11.566406 -6.351562 11.546875 -6.375 L 8.15625 -19.234375 C 8.132812 -19.273438 8.113281 -19.296875 8.09375 -19.296875 C 8.070312 -19.296875 8.050781 -19.273438 8.03125 -19.234375 Z M 4.671875 -6.375 "/></g></g></g><g fill="#fdfbe9" fill-opacity="1"><g transform="translate(203.677094, 87.374997)"><g><path d="M 2.96875 0 C 2.757812 0 2.65625 -0.101562 2.65625 -0.3125 L 2.65625 -22.078125 C 2.65625 -22.296875 2.757812 -22.40625 2.96875 -22.40625 L 4.609375 -22.40625 C 4.816406 -22.40625 4.921875 -22.296875 4.921875 -22.078125 L 4.921875 -2.109375 C 4.921875 -2.023438 4.96875 -1.984375 5.0625 -1.984375 L 14.375 -1.984375 C 14.582031 -1.984375 14.6875 -1.875 14.6875 -1.65625 L 14.6875 -0.3125 C 14.6875 -0.101562 14.582031 0 14.375 0 Z M 2.96875 0 "/></g></g></g><g fill="#fdfbe9" fill-opacity="1"><g transform="translate(219.097308, 87.374997)"><g><path d="M 7.109375 -0.03125 C 6.890625 -0.03125 6.78125 -0.140625 6.78125 -0.359375 L 6.78125 -9.890625 C 6.78125 -9.972656 6.769531 -10.023438 6.75 -10.046875 L 1.21875 -22.015625 L 1.1875 -22.140625 C 1.1875 -22.316406 1.28125 -22.40625 1.46875 -22.40625 L 3.203125 -22.40625 C 3.367188 -22.40625 3.484375 -22.316406 3.546875 -22.140625 L 7.84375 -12.578125 C 7.863281 -12.535156 7.894531 -12.515625 7.9375 -12.515625 C 7.976562 -12.515625 8.007812 -12.535156 8.03125 -12.578125 L 12.3125 -22.140625 C 12.382812 -22.316406 12.503906 -22.40625 12.671875 -22.40625 L 14.40625 -22.40625 C 14.507812 -22.40625 14.585938 -22.363281 14.640625 -22.28125 C 14.691406 -22.207031 14.695312 -22.117188 14.65625 -22.015625 L 9.09375 -10.046875 C 9.070312 -10.023438 9.0625 -9.972656 9.0625 -9.890625 L 9.0625 -0.359375 C 9.0625 -0.140625 8.953125 -0.03125 8.734375 -0.03125 Z M 7.109375 -0.03125 "/></g></g></g><g fill="#fdfbe9" fill-opacity="1"><g transform="translate(234.965411, 87.374997)"><g><path d="M 8.0625 0.25 C 6.0625 0.25 4.46875 -0.273438 3.28125 -1.328125 C 2.09375 -2.378906 1.5 -3.789062 1.5 -5.5625 L 1.5 -6.4375 C 1.5 -6.644531 1.609375 -6.75 1.828125 -6.75 L 3.390625 -6.75 C 3.609375 -6.75 3.71875 -6.644531 3.71875 -6.4375 L 3.71875 -5.703125 C 3.71875 -4.503906 4.117188 -3.539062 4.921875 -2.8125 C 5.734375 -2.09375 6.8125 -1.734375 8.15625 -1.734375 C 9.414062 -1.734375 10.40625 -2.070312 11.125 -2.75 C 11.851562 -3.4375 12.21875 -4.332031 12.21875 -5.4375 C 12.21875 -6.164062 12.046875 -6.796875 11.703125 -7.328125 C 11.367188 -7.859375 10.867188 -8.347656 10.203125 -8.796875 C 9.546875 -9.242188 8.597656 -9.8125 7.359375 -10.5 C 6.035156 -11.195312 4.992188 -11.8125 4.234375 -12.34375 C 3.484375 -12.882812 2.875 -13.535156 2.40625 -14.296875 C 1.9375 -15.066406 1.703125 -16.007812 1.703125 -17.125 C 1.703125 -18.851562 2.253906 -20.207031 3.359375 -21.1875 C 4.472656 -22.164062 5.957031 -22.65625 7.8125 -22.65625 C 9.789062 -22.65625 11.363281 -22.109375 12.53125 -21.015625 C 13.707031 -19.929688 14.296875 -18.492188 14.296875 -16.703125 L 14.296875 -15.96875 C 14.296875 -15.75 14.191406 -15.640625 13.984375 -15.640625 L 12.390625 -15.640625 C 12.171875 -15.640625 12.0625 -15.75 12.0625 -15.96875 L 12.0625 -16.671875 C 12.0625 -17.867188 11.675781 -18.832031 10.90625 -19.5625 C 10.144531 -20.300781 9.09375 -20.671875 7.75 -20.671875 C 6.550781 -20.671875 5.613281 -20.359375 4.9375 -19.734375 C 4.269531 -19.117188 3.9375 -18.25 3.9375 -17.125 C 3.9375 -16.394531 4.09375 -15.785156 4.40625 -15.296875 C 4.726562 -14.804688 5.191406 -14.359375 5.796875 -13.953125 C 6.410156 -13.546875 7.347656 -13 8.609375 -12.3125 C 10.054688 -11.507812 11.171875 -10.820312 11.953125 -10.25 C 12.734375 -9.6875 13.351562 -9.035156 13.8125 -8.296875 C 14.269531 -7.566406 14.5 -6.664062 14.5 -5.59375 C 14.5 -3.800781 13.921875 -2.378906 12.765625 -1.328125 C 11.617188 -0.273438 10.050781 0.25 8.0625 0.25 Z M 8.0625 0.25 "/></g></g></g><g fill="#fdfbe9" fill-opacity="1"><g transform="translate(250.96148, 87.374997)"><g><path d="M 2.96875 0 C 2.757812 0 2.65625 -0.101562 2.65625 -0.3125 L 2.65625 -22.078125 C 2.65625 -22.296875 2.757812 -22.40625 2.96875 -22.40625 L 4.609375 -22.40625 C 4.816406 -22.40625 4.921875 -22.296875 4.921875 -22.078125 L 4.921875 -0.3125 C 4.921875 -0.101562 4.816406 0 4.609375 0 Z M 2.96875 0 "/></g></g></g><g fill="#fdfbe9" fill-opacity="1"><g transform="translate(258.543614, 87.374997)"><g><path d="M 8.0625 0.25 C 6.0625 0.25 4.46875 -0.273438 3.28125 -1.328125 C 2.09375 -2.378906 1.5 -3.789062 1.5 -5.5625 L 1.5 -6.4375 C 1.5 -6.644531 1.609375 -6.75 1.828125 -6.75 L 3.390625 -6.75 C 3.609375 -6.75 3.71875 -6.644531 3.71875 -6.4375 L 3.71875 -5.703125 C 3.71875 -4.503906 4.117188 -3.539062 4.921875 -2.8125 C 5.734375 -2.09375 6.8125 -1.734375 8.15625 -1.734375 C 9.414062 -1.734375 10.40625 -2.070312 11.125 -2.75 C 11.851562 -3.4375 12.21875 -4.332031 12.21875 -5.4375 C 12.21875 -6.164062 12.046875 -6.796875 11.703125 -7.328125 C 11.367188 -7.859375 10.867188 -8.347656 10.203125 -8.796875 C 9.546875 -9.242188 8.597656 -9.8125 7.359375 -10.5 C 6.035156 -11.195312 4.992188 -11.8125 4.234375 -12.34375 C 3.484375 -12.882812 2.875 -13.535156 2.40625 -14.296875 C 1.9375 -15.066406 1.703125 -16.007812 1.703125 -17.125 C 1.703125 -18.851562 2.253906 -20.207031 3.359375 -21.1875 C 4.472656 -22.164062 5.957031 -22.65625 7.8125 -22.65625 C 9.789062 -22.65625 11.363281 -22.109375 12.53125 -21.015625 C 13.707031 -19.929688 14.296875 -18.492188 14.296875 -16.703125 L 14.296875 -15.96875 C 14.296875 -15.75 14.191406 -15.640625 13.984375 -15.640625 L 12.390625 -15.640625 C 12.171875 -15.640625 12.0625 -15.75 12.0625 -15.96875 L 12.0625 -16.671875 C 12.0625 -17.867188 11.675781 -18.832031 10.90625 -19.5625 C 10.144531 -20.300781 9.09375 -20.671875 7.75 -20.671875 C 6.550781 -20.671875 5.613281 -20.359375 4.9375 -19.734375 C 4.269531 -19.117188 3.9375 -18.25 3.9375 -17.125 C 3.9375 -16.394531 4.09375 -15.785156 4.40625 -15.296875 C 4.726562 -14.804688 5.191406 -14.359375 5.796875 -13.953125 C 6.410156 -13.546875 7.347656 -13 8.609375 -12.3125 C 10.054688 -11.507812 11.171875 -10.820312 11.953125 -10.25 C 12.734375 -9.6875 13.351562 -9.035156 13.8125 -8.296875 C 14.269531 -7.566406 14.5 -6.664062 14.5 -5.59375 C 14.5 -3.800781 13.921875 -2.378906 12.765625 -1.328125 C 11.617188 -0.273438 10.050781 0.25 8.0625 0.25 Z M 8.0625 0.25 "/></g></g></g><g fill="#fdfbe9" fill-opacity="1"><g transform="translate(274.531891, 87.374997)"><g/></g></g><g fill="#fdfbe9" fill-opacity="1"><g transform="translate(179.71549, 125.624995)"><g><path d="M 2.96875 0 C 2.757812 0 2.65625 -0.101562 2.65625 -0.3125 L 2.65625 -22.078125 C 2.65625 -22.296875 2.757812 -22.40625 2.96875 -22.40625 L 9.21875 -22.40625 C 11.113281 -22.40625 12.609375 -21.859375 13.703125 -20.765625 C 14.804688 -19.679688 15.359375 -18.195312 15.359375 -16.3125 L 15.359375 -6.078125 C 15.359375 -4.203125 14.804688 -2.71875 13.703125 -1.625 C 12.609375 -0.539062 11.113281 0 9.21875 0 Z M 4.921875 -2.109375 C 4.921875 -2.023438 4.96875 -1.984375 5.0625 -1.984375 L 9.25 -1.984375 C 10.425781 -2.003906 11.351562 -2.390625 12.03125 -3.140625 C 12.71875 -3.898438 13.070312 -4.941406 13.09375 -6.265625 L 13.09375 -16.125 C 13.09375 -17.445312 12.75 -18.492188 12.0625 -19.265625 C 11.382812 -20.035156 10.445312 -20.421875 9.25 -20.421875 L 5.0625 -20.421875 C 4.96875 -20.421875 4.921875 -20.375 4.921875 -20.28125 Z M 4.921875 -2.109375 "/></g></g></g><g fill="#fdfbe9" fill-opacity="1"><g transform="translate(197.055222, 125.624995)"><g><path d="M 2.96875 0 C 2.757812 0 2.65625 -0.101562 2.65625 -0.3125 L 2.65625 -22.078125 C 2.65625 -22.296875 2.757812 -22.40625 2.96875 -22.40625 L 4.609375 -22.40625 C 4.816406 -22.40625 4.921875 -22.296875 4.921875 -22.078125 L 4.921875 -0.3125 C 4.921875 -0.101562 4.816406 0 4.609375 0 Z M 2.96875 0 "/></g></g></g><g fill="#fdfbe9" fill-opacity="1"><g transform="translate(204.637356, 125.624995)"><g><path d="M 13.5 0 C 13.3125 0 13.195312 -0.09375 13.15625 -0.28125 L 12.09375 -4.28125 C 12.070312 -4.351562 12.019531 -4.390625 11.9375 -4.390625 L 4.28125 -4.390625 C 4.195312 -4.390625 4.144531 -4.351562 4.125 -4.28125 L 3.078125 -0.28125 C 3.035156 -0.09375 2.914062 0 2.71875 0 L 1.0625 0 C 0.945312 0 0.863281 -0.03125 0.8125 -0.09375 C 0.757812 -0.15625 0.742188 -0.242188 0.765625 -0.359375 L 6.75 -22.109375 C 6.789062 -22.304688 6.910156 -22.40625 7.109375 -22.40625 L 9.15625 -22.40625 C 9.34375 -22.40625 9.457031 -22.304688 9.5 -22.109375 L 15.484375 -0.359375 L 15.515625 -0.25 C 15.515625 -0.0820312 15.410156 0 15.203125 0 Z M 4.671875 -6.375 C 4.648438 -6.351562 4.65625 -6.320312 4.6875 -6.28125 C 4.71875 -6.25 4.753906 -6.234375 4.796875 -6.234375 L 11.421875 -6.234375 C 11.460938 -6.234375 11.5 -6.25 11.53125 -6.28125 C 11.5625 -6.320312 11.566406 -6.351562 11.546875 -6.375 L 8.15625 -19.234375 C 8.132812 -19.273438 8.113281 -19.296875 8.09375 -19.296875 C 8.070312 -19.296875 8.050781 -19.273438 8.03125 -19.234375 Z M 4.671875 -6.375 "/></g></g></g><g fill="#fdfbe9" fill-opacity="1"><g transform="translate(220.889361, 125.624995)"><g><path d="M 13.625 0 C 13.457031 0 13.34375 -0.0820312 13.28125 -0.25 L 9.3125 -10.140625 C 9.289062 -10.203125 9.25 -10.234375 9.1875 -10.234375 L 5.0625 -10.234375 C 4.96875 -10.234375 4.921875 -10.191406 4.921875 -10.109375 L 4.921875 -0.3125 C 4.921875 -0.101562 4.816406 0 4.609375 0 L 2.96875 0 C 2.757812 0 2.65625 -0.101562 2.65625 -0.3125 L 2.65625 -22.078125 C 2.65625 -22.296875 2.757812 -22.40625 2.96875 -22.40625 L 9.765625 -22.40625 C 10.867188 -22.40625 11.851562 -22.144531 12.71875 -21.625 C 13.582031 -21.113281 14.253906 -20.390625 14.734375 -19.453125 C 15.210938 -18.515625 15.453125 -17.4375 15.453125 -16.21875 C 15.453125 -14.769531 15.097656 -13.53125 14.390625 -12.5 C 13.691406 -11.476562 12.734375 -10.800781 11.515625 -10.46875 C 11.429688 -10.425781 11.410156 -10.367188 11.453125 -10.296875 L 15.578125 -0.390625 L 15.609375 -0.25 C 15.609375 -0.0820312 15.515625 0 15.328125 0 Z M 5.0625 -20.421875 C 4.96875 -20.421875 4.921875 -20.375 4.921875 -20.28125 L 4.921875 -12.1875 C 4.921875 -12.101562 4.96875 -12.0625 5.0625 -12.0625 L 9.46875 -12.0625 C 10.582031 -12.0625 11.476562 -12.445312 12.15625 -13.21875 C 12.84375 -13.988281 13.1875 -14.988281 13.1875 -16.21875 C 13.1875 -17.476562 12.84375 -18.492188 12.15625 -19.265625 C 11.476562 -20.035156 10.582031 -20.421875 9.46875 -20.421875 Z M 5.0625 -20.421875 "/></g></g></g><g fill="#fdfbe9" fill-opacity="1"><g transform="translate(237.781206, 125.624995)"><g><path d="M 7.109375 -0.03125 C 6.890625 -0.03125 6.78125 -0.140625 6.78125 -0.359375 L 6.78125 -9.890625 C 6.78125 -9.972656 6.769531 -10.023438 6.75 -10.046875 L 1.21875 -22.015625 L 1.1875 -22.140625 C 1.1875 -22.316406 1.28125 -22.40625 1.46875 -22.40625 L 3.203125 -22.40625 C 3.367188 -22.40625 3.484375 -22.316406 3.546875 -22.140625 L 7.84375 -12.578125 C 7.863281 -12.535156 7.894531 -12.515625 7.9375 -12.515625 C 7.976562 -12.515625 8.007812 -12.535156 8.03125 -12.578125 L 12.3125 -22.140625 C 12.382812 -22.316406 12.503906 -22.40625 12.671875 -22.40625 L 14.40625 -22.40625 C 14.507812 -22.40625 14.585938 -22.363281 14.640625 -22.28125 C 14.691406 -22.207031 14.695312 -22.117188 14.65625 -22.015625 L 9.09375 -10.046875 C 9.070312 -10.023438 9.0625 -9.972656 9.0625 -9.890625 L 9.0625 -0.359375 C 9.0625 -0.140625 8.953125 -0.03125 8.734375 -0.03125 Z M 7.109375 -0.03125 "/></g></g></g></svg>