<svg xmlns="http://www.w3.org/2000/svg" xmlns:xlink="http://www.w3.org/1999/xlink" width="700" zoomAndPan="magnify" viewBox="0 0 525 149.999998" height="200" preserveAspectRatio="xMidYMid meet" version="1.0"><defs><g/><clipPath id="4e9cd87462"><path d="M 9.378906 18.734375 L 122.230469 18.734375 L 122.230469 131.585938 L 9.378906 131.585938 Z M 9.378906 18.734375 " clip-rule="nonzero"/></clipPath><clipPath id="2e2f4c8ece"><path d="M 26.628906 18.734375 L 104.886719 18.734375 C 114.414062 18.734375 122.136719 26.457031 122.136719 35.984375 L 122.136719 114.015625 C 122.136719 123.542969 114.414062 131.265625 104.886719 131.265625 L 26.628906 131.265625 C 17.101562 131.265625 9.378906 123.542969 9.378906 114.015625 L 9.378906 35.984375 C 9.378906 26.457031 17.101562 18.734375 26.628906 18.734375 " clip-rule="nonzero"/></clipPath></defs><g clip-path="url(#4e9cd87462)"><g clip-path="url(#2e2f4c8ece)"><path fill="#fdfbe9" d="M 9.378906 18.734375 L 122.230469 18.734375 L 122.230469 131.234375 L 9.378906 131.234375 Z M 9.378906 18.734375 " fill-opacity="1" fill-rule="nonzero"/></g></g><g fill="#746057" fill-opacity="1"><g transform="translate(41.762785, 104.624996)"><g><path d="M 24 0.796875 C 21.007812 0.796875 18.285156 0.410156 15.828125 -0.359375 C 13.378906 -1.128906 11.273438 -2.222656 9.515625 -3.640625 C 7.753906 -5.054688 6.367188 -6.773438 5.359375 -8.796875 C 4.347656 -10.828125 3.757812 -13.09375 3.59375 -15.59375 L 15.59375 -15.59375 C 16.019531 -11.59375 18.898438 -9.59375 24.234375 -9.59375 C 26.898438 -9.59375 28.925781 -10.164062 30.3125 -11.3125 C 31.707031 -12.46875 32.40625 -14.003906 32.40625 -15.921875 C 32.40625 -17.628906 31.859375 -19.09375 30.765625 -20.3125 C 29.671875 -21.539062 28.160156 -22.367188 26.234375 -22.796875 L 20.15625 -24.15625 C 14.925781 -25.332031 10.960938 -27.425781 8.265625 -30.4375 C 5.578125 -33.445312 4.234375 -37.300781 4.234375 -42 C 4.234375 -44.457031 4.703125 -46.695312 5.640625 -48.71875 C 6.578125 -50.75 7.894531 -52.484375 9.59375 -53.921875 C 11.300781 -55.359375 13.367188 -56.476562 15.796875 -57.28125 C 18.222656 -58.082031 20.957031 -58.484375 24 -58.484375 C 29.707031 -58.484375 34.28125 -57.066406 37.71875 -54.234375 C 41.15625 -51.410156 43.0625 -47.492188 43.4375 -42.484375 L 31.4375 -42.484375 C 31.226562 -44.242188 30.441406 -45.613281 29.078125 -46.59375 C 27.722656 -47.582031 25.925781 -48.078125 23.6875 -48.078125 C 21.332031 -48.078125 19.5 -47.515625 18.1875 -46.390625 C 16.882812 -45.273438 16.234375 -43.863281 16.234375 -42.15625 C 16.234375 -40.664062 16.738281 -39.375 17.75 -38.28125 C 18.769531 -37.1875 20.238281 -36.425781 22.15625 -36 L 28.5625 -34.5625 C 33.726562 -33.382812 37.660156 -31.257812 40.359375 -28.1875 C 43.054688 -25.125 44.40625 -21.222656 44.40625 -16.484375 C 44.40625 -13.921875 43.921875 -11.582031 42.953125 -9.46875 C 41.992188 -7.363281 40.617188 -5.550781 38.828125 -4.03125 C 37.046875 -2.519531 34.898438 -1.335938 32.390625 -0.484375 C 29.890625 0.367188 27.09375 0.796875 24 0.796875 Z M 24 0.796875 "/></g></g></g><g fill="#fdfbe9" fill-opacity="1"><g transform="translate(202.348147, 65.999998)"><g><path d="M 13.203125 0.4375 C 11.554688 0.4375 10.054688 0.222656 8.703125 -0.203125 C 7.359375 -0.628906 6.203125 -1.226562 5.234375 -2 C 4.265625 -2.78125 3.5 -3.726562 2.9375 -4.84375 C 2.382812 -5.957031 2.066406 -7.203125 1.984375 -8.578125 L 8.578125 -8.578125 C 8.816406 -6.378906 10.398438 -5.28125 13.328125 -5.28125 C 14.796875 -5.28125 15.910156 -5.59375 16.671875 -6.21875 C 17.429688 -6.851562 17.8125 -7.695312 17.8125 -8.75 C 17.8125 -9.6875 17.507812 -10.492188 16.90625 -11.171875 C 16.3125 -11.847656 15.488281 -12.304688 14.4375 -12.546875 L 11.09375 -13.28125 C 8.21875 -13.925781 6.035156 -15.078125 4.546875 -16.734375 C 3.066406 -18.398438 2.328125 -20.519531 2.328125 -23.09375 C 2.328125 -24.445312 2.582031 -25.679688 3.09375 -26.796875 C 3.613281 -27.910156 4.34375 -28.863281 5.28125 -29.65625 C 6.21875 -30.445312 7.351562 -31.0625 8.6875 -31.5 C 10.019531 -31.9375 11.523438 -32.15625 13.203125 -32.15625 C 16.335938 -32.15625 18.847656 -31.378906 20.734375 -29.828125 C 22.628906 -28.273438 23.679688 -26.117188 23.890625 -23.359375 L 17.296875 -23.359375 C 17.171875 -24.328125 16.734375 -25.082031 15.984375 -25.625 C 15.242188 -26.164062 14.257812 -26.4375 13.03125 -26.4375 C 11.738281 -26.4375 10.734375 -26.128906 10.015625 -25.515625 C 9.296875 -24.898438 8.9375 -24.125 8.9375 -23.1875 C 8.9375 -22.363281 9.210938 -21.648438 9.765625 -21.046875 C 10.328125 -20.453125 11.132812 -20.035156 12.1875 -19.796875 L 15.703125 -19.015625 C 18.546875 -18.367188 20.707031 -17.203125 22.1875 -15.515625 C 23.675781 -13.828125 24.421875 -11.675781 24.421875 -9.0625 C 24.421875 -7.65625 24.15625 -6.367188 23.625 -5.203125 C 23.101562 -4.046875 22.347656 -3.050781 21.359375 -2.21875 C 20.378906 -1.382812 19.195312 -0.734375 17.8125 -0.265625 C 16.4375 0.203125 14.898438 0.4375 13.203125 0.4375 Z M 13.203125 0.4375 "/></g></g></g><g fill="#fdfbe9" fill-opacity="1"><g transform="translate(228.743439, 65.999998)"><g><path d="M 13.203125 0.4375 C 11.523438 0.4375 10.003906 0.203125 8.640625 -0.265625 C 7.273438 -0.734375 6.109375 -1.382812 5.140625 -2.21875 C 4.179688 -3.050781 3.4375 -4.066406 2.90625 -5.265625 C 2.375 -6.472656 2.109375 -7.796875 2.109375 -9.234375 L 2.109375 -15 C 2.109375 -16.46875 2.375 -17.785156 2.90625 -18.953125 C 3.4375 -20.128906 4.179688 -21.144531 5.140625 -22 C 6.109375 -22.851562 7.273438 -23.503906 8.640625 -23.953125 C 10.003906 -24.410156 11.523438 -24.640625 13.203125 -24.640625 C 14.835938 -24.640625 16.332031 -24.40625 17.6875 -23.9375 C 19.039062 -23.46875 20.195312 -22.804688 21.15625 -21.953125 C 22.125 -21.109375 22.875 -20.085938 23.40625 -18.890625 C 23.9375 -17.703125 24.203125 -16.390625 24.203125 -14.953125 L 24.203125 -10.5625 L 8.625 -10.5625 L 8.625 -9.234375 C 8.625 -7.773438 9.019531 -6.640625 9.8125 -5.828125 C 10.601562 -5.023438 11.734375 -4.625 13.203125 -4.625 C 14.285156 -4.625 15.207031 -4.796875 15.96875 -5.140625 C 16.726562 -5.492188 17.242188 -5.976562 17.515625 -6.59375 L 23.984375 -6.59375 C 23.710938 -5.539062 23.25 -4.582031 22.59375 -3.71875 C 21.9375 -2.851562 21.132812 -2.113281 20.1875 -1.5 C 19.25 -0.882812 18.1875 -0.40625 17 -0.0625 C 15.8125 0.269531 14.546875 0.4375 13.203125 0.4375 Z M 17.8125 -14.515625 L 17.8125 -14.953125 C 17.8125 -16.421875 17.410156 -17.554688 16.609375 -18.359375 C 15.804688 -19.171875 14.671875 -19.578125 13.203125 -19.578125 C 11.765625 -19.578125 10.640625 -19.171875 9.828125 -18.359375 C 9.023438 -17.554688 8.625 -16.4375 8.625 -15 L 8.625 -14.515625 Z M 17.8125 -14.515625 "/></g></g></g><g fill="#fdfbe9" fill-opacity="1"><g transform="translate(255.138732, 65.999998)"><g><path d="M 2.6875 0 L 2.6875 -24.203125 L 8.9375 -24.203125 L 8.9375 -20.015625 L 9.375 -20.015625 C 9.582031 -21.484375 10.226562 -22.617188 11.3125 -23.421875 C 12.394531 -24.234375 13.816406 -24.640625 15.578125 -24.640625 C 18.035156 -24.640625 19.976562 -23.832031 21.40625 -22.21875 C 22.832031 -20.601562 23.546875 -18.40625 23.546875 -15.625 L 23.546875 0 L 16.9375 0 L 16.9375 -14.953125 C 16.9375 -16.191406 16.59375 -17.160156 15.90625 -17.859375 C 15.21875 -18.566406 14.285156 -18.921875 13.109375 -18.921875 C 11.941406 -18.921875 11.007812 -18.566406 10.3125 -17.859375 C 9.625 -17.160156 9.28125 -16.191406 9.28125 -14.953125 L 9.28125 0 Z M 2.6875 0 "/></g></g></g><g fill="#fdfbe9" fill-opacity="1"><g transform="translate(281.534025, 65.999998)"><g><path d="M 1.546875 -24.203125 L 7.921875 -24.203125 L 7.921875 -31.6875 L 14.515625 -31.6875 L 14.515625 -24.203125 L 23.546875 -24.203125 L 23.546875 -18.265625 L 14.515625 -18.265625 L 14.515625 -8.359375 C 14.515625 -7.597656 14.726562 -7.003906 15.15625 -6.578125 C 15.582031 -6.148438 16.175781 -5.9375 16.9375 -5.9375 L 23.09375 -5.9375 L 23.09375 0 L 16.28125 0 C 13.664062 0 11.617188 -0.738281 10.140625 -2.21875 C 8.660156 -3.695312 7.921875 -5.742188 7.921875 -8.359375 L 7.921875 -18.265625 L 1.546875 -18.265625 Z M 1.546875 -24.203125 "/></g></g></g><g fill="#fdfbe9" fill-opacity="1"><g transform="translate(307.929318, 65.999998)"><g><path d="M 3.296875 -5.984375 L 11.875 -5.984375 L 11.875 -18.265625 L 4.40625 -18.265625 L 4.40625 -24.203125 L 18.046875 -24.203125 L 18.046875 -5.984375 L 24.859375 -5.984375 L 24.859375 0 L 3.296875 0 Z M 10.5625 -30.578125 C 10.5625 -31.515625 10.859375 -32.257812 11.453125 -32.8125 C 12.054688 -33.375 12.859375 -33.65625 13.859375 -33.65625 L 15.1875 -33.65625 C 16.175781 -33.65625 16.972656 -33.375 17.578125 -32.8125 C 18.179688 -32.257812 18.484375 -31.515625 18.484375 -30.578125 C 18.484375 -29.640625 18.179688 -28.890625 17.578125 -28.328125 C 16.972656 -27.773438 16.160156 -27.5 15.140625 -27.5 L 13.859375 -27.5 C 12.859375 -27.5 12.054688 -27.773438 11.453125 -28.328125 C 10.859375 -28.890625 10.5625 -29.640625 10.5625 -30.578125 Z M 10.5625 -30.578125 "/></g></g></g><g fill="#fdfbe9" fill-opacity="1"><g transform="translate(334.324611, 65.999998)"><g><path d="M 6.6875 -24.203125 L 6.6875 -20.6875 L 7.125 -20.6875 C 7.1875 -21.914062 7.582031 -22.878906 8.3125 -23.578125 C 9.050781 -24.285156 10.019531 -24.640625 11.21875 -24.640625 C 12.363281 -24.640625 13.320312 -24.285156 14.09375 -23.578125 C 14.875 -22.878906 15.410156 -21.914062 15.703125 -20.6875 L 15.890625 -20.6875 C 15.941406 -21.914062 16.332031 -22.878906 17.0625 -23.578125 C 17.800781 -24.285156 18.769531 -24.640625 19.96875 -24.640625 C 21.4375 -24.640625 22.585938 -24.085938 23.421875 -22.984375 C 24.265625 -21.890625 24.6875 -20.390625 24.6875 -18.484375 L 24.6875 0 L 19.265625 0 L 19.265625 -17.734375 C 19.265625 -19.347656 18.679688 -20.15625 17.515625 -20.15625 C 16.921875 -20.15625 16.503906 -19.941406 16.265625 -19.515625 C 16.035156 -19.085938 15.921875 -18.492188 15.921875 -17.734375 L 15.921875 0 L 10.515625 0 L 10.515625 -17.734375 C 10.515625 -19.347656 9.925781 -20.15625 8.75 -20.15625 C 8.164062 -20.15625 7.753906 -19.941406 7.515625 -19.515625 C 7.285156 -19.085938 7.171875 -18.492188 7.171875 -17.734375 L 7.171875 0 L 1.765625 0 L 1.765625 -24.203125 Z M 6.6875 -24.203125 "/></g></g></g><g fill="#fdfbe9" fill-opacity="1"><g transform="translate(360.719904, 65.999998)"><g><path d="M 13.203125 0.4375 C 11.523438 0.4375 10.003906 0.203125 8.640625 -0.265625 C 7.273438 -0.734375 6.109375 -1.382812 5.140625 -2.21875 C 4.179688 -3.050781 3.4375 -4.066406 2.90625 -5.265625 C 2.375 -6.472656 2.109375 -7.796875 2.109375 -9.234375 L 2.109375 -15 C 2.109375 -16.46875 2.375 -17.785156 2.90625 -18.953125 C 3.4375 -20.128906 4.179688 -21.144531 5.140625 -22 C 6.109375 -22.851562 7.273438 -23.503906 8.640625 -23.953125 C 10.003906 -24.410156 11.523438 -24.640625 13.203125 -24.640625 C 14.835938 -24.640625 16.332031 -24.40625 17.6875 -23.9375 C 19.039062 -23.46875 20.195312 -22.804688 21.15625 -21.953125 C 22.125 -21.109375 22.875 -20.085938 23.40625 -18.890625 C 23.9375 -17.703125 24.203125 -16.390625 24.203125 -14.953125 L 24.203125 -10.5625 L 8.625 -10.5625 L 8.625 -9.234375 C 8.625 -7.773438 9.019531 -6.640625 9.8125 -5.828125 C 10.601562 -5.023438 11.734375 -4.625 13.203125 -4.625 C 14.285156 -4.625 15.207031 -4.796875 15.96875 -5.140625 C 16.726562 -5.492188 17.242188 -5.976562 17.515625 -6.59375 L 23.984375 -6.59375 C 23.710938 -5.539062 23.25 -4.582031 22.59375 -3.71875 C 21.9375 -2.851562 21.132812 -2.113281 20.1875 -1.5 C 19.25 -0.882812 18.1875 -0.40625 17 -0.0625 C 15.8125 0.269531 14.546875 0.4375 13.203125 0.4375 Z M 17.8125 -14.515625 L 17.8125 -14.953125 C 17.8125 -16.421875 17.410156 -17.554688 16.609375 -18.359375 C 15.804688 -19.171875 14.671875 -19.578125 13.203125 -19.578125 C 11.765625 -19.578125 10.640625 -19.171875 9.828125 -18.359375 C 9.023438 -17.554688 8.625 -16.4375 8.625 -15 L 8.625 -14.515625 Z M 17.8125 -14.515625 "/></g></g></g><g fill="#fdfbe9" fill-opacity="1"><g transform="translate(387.115197, 65.999998)"><g><path d="M 2.6875 0 L 2.6875 -24.203125 L 8.9375 -24.203125 L 8.9375 -20.015625 L 9.375 -20.015625 C 9.582031 -21.484375 10.226562 -22.617188 11.3125 -23.421875 C 12.394531 -24.234375 13.816406 -24.640625 15.578125 -24.640625 C 18.035156 -24.640625 19.976562 -23.832031 21.40625 -22.21875 C 22.832031 -20.601562 23.546875 -18.40625 23.546875 -15.625 L 23.546875 0 L 16.9375 0 L 16.9375 -14.953125 C 16.9375 -16.191406 16.59375 -17.160156 15.90625 -17.859375 C 15.21875 -18.566406 14.285156 -18.921875 13.109375 -18.921875 C 11.941406 -18.921875 11.007812 -18.566406 10.3125 -17.859375 C 9.625 -17.160156 9.28125 -16.191406 9.28125 -14.953125 L 9.28125 0 Z M 2.6875 0 "/></g></g></g><g fill="#fdfbe9" fill-opacity="1"><g transform="translate(413.51049, 65.999998)"><g><path d="M 1.546875 -24.203125 L 7.921875 -24.203125 L 7.921875 -31.6875 L 14.515625 -31.6875 L 14.515625 -24.203125 L 23.546875 -24.203125 L 23.546875 -18.265625 L 14.515625 -18.265625 L 14.515625 -8.359375 C 14.515625 -7.597656 14.726562 -7.003906 15.15625 -6.578125 C 15.582031 -6.148438 16.175781 -5.9375 16.9375 -5.9375 L 23.09375 -5.9375 L 23.09375 0 L 16.28125 0 C 13.664062 0 11.617188 -0.738281 10.140625 -2.21875 C 8.660156 -3.695312 7.921875 -5.742188 7.921875 -8.359375 L 7.921875 -18.265625 L 1.546875 -18.265625 Z M 1.546875 -24.203125 "/></g></g></g><g fill="#fdfbe9" fill-opacity="1"><g transform="translate(149.555181, 113.999995)"><g><path d="M 0.4375 0 L 8.890625 -31.6875 L 17.6875 -31.6875 L 25.953125 0 L 19.265625 0 L 17.59375 -7.265625 L 8.75 -7.265625 L 7.078125 0 Z M 9.9375 -12.40625 L 16.375 -12.40625 L 13.953125 -22.84375 C 13.859375 -23.28125 13.765625 -23.753906 13.671875 -24.265625 C 13.585938 -24.773438 13.519531 -25.265625 13.46875 -25.734375 C 13.40625 -26.234375 13.34375 -26.75 13.28125 -27.28125 L 13.03125 -27.28125 C 12.96875 -26.75 12.890625 -26.234375 12.796875 -25.734375 C 12.742188 -25.265625 12.679688 -24.773438 12.609375 -24.265625 C 12.535156 -23.753906 12.4375 -23.28125 12.3125 -22.84375 Z M 9.9375 -12.40625 "/></g></g></g><g fill="#fdfbe9" fill-opacity="1"><g transform="translate(175.950474, 113.999995)"><g><path d="M 2.6875 0 L 2.6875 -24.203125 L 8.9375 -24.203125 L 8.9375 -20.015625 L 9.375 -20.015625 C 9.582031 -21.484375 10.226562 -22.617188 11.3125 -23.421875 C 12.394531 -24.234375 13.816406 -24.640625 15.578125 -24.640625 C 18.035156 -24.640625 19.976562 -23.832031 21.40625 -22.21875 C 22.832031 -20.601562 23.546875 -18.40625 23.546875 -15.625 L 23.546875 0 L 16.9375 0 L 16.9375 -14.953125 C 16.9375 -16.191406 16.59375 -17.160156 15.90625 -17.859375 C 15.21875 -18.566406 14.285156 -18.921875 13.109375 -18.921875 C 11.941406 -18.921875 11.007812 -18.566406 10.3125 -17.859375 C 9.625 -17.160156 9.28125 -16.191406 9.28125 -14.953125 L 9.28125 0 Z M 2.6875 0 "/></g></g></g><g fill="#fdfbe9" fill-opacity="1"><g transform="translate(202.345767, 113.999995)"><g><path d="M 1.890625 -6.59375 C 1.890625 -9.0625 2.785156 -11.003906 4.578125 -12.421875 C 6.367188 -13.847656 8.800781 -14.5625 11.875 -14.5625 L 17.109375 -14.5625 L 17.109375 -16.71875 C 17.109375 -17.570312 16.75 -18.257812 16.03125 -18.78125 C 15.3125 -19.3125 14.335938 -19.578125 13.109375 -19.578125 C 12.023438 -19.578125 11.125 -19.378906 10.40625 -18.984375 C 9.6875 -18.585938 9.222656 -18.050781 9.015625 -17.375 L 2.640625 -17.375 C 2.816406 -18.488281 3.191406 -19.492188 3.765625 -20.390625 C 4.335938 -21.285156 5.078125 -22.046875 5.984375 -22.671875 C 6.890625 -23.304688 7.941406 -23.789062 9.140625 -24.125 C 10.347656 -24.46875 11.671875 -24.640625 13.109375 -24.640625 C 14.691406 -24.640625 16.132812 -24.445312 17.4375 -24.0625 C 18.75 -23.6875 19.863281 -23.148438 20.78125 -22.453125 C 21.707031 -21.765625 22.425781 -20.9375 22.9375 -19.96875 C 23.457031 -19.007812 23.71875 -17.925781 23.71875 -16.71875 L 23.71875 0 L 17.421875 0 L 17.421875 -4.84375 L 17.03125 -4.84375 C 16.820312 -3.195312 16.050781 -1.90625 14.71875 -0.96875 C 13.382812 -0.03125 11.691406 0.4375 9.640625 0.4375 C 7.265625 0.4375 5.378906 -0.191406 3.984375 -1.453125 C 2.585938 -2.710938 1.890625 -4.425781 1.890625 -6.59375 Z M 12.3125 -4.625 C 13.726562 -4.625 14.878906 -4.953125 15.765625 -5.609375 C 16.660156 -6.265625 17.109375 -7.109375 17.109375 -8.140625 L 17.109375 -10.609375 L 11.875 -10.609375 C 10.851562 -10.609375 10.03125 -10.347656 9.40625 -9.828125 C 8.789062 -9.316406 8.484375 -8.59375 8.484375 -7.65625 C 8.484375 -6.71875 8.8125 -5.976562 9.46875 -5.4375 C 10.132812 -4.894531 11.082031 -4.625 12.3125 -4.625 Z M 12.3125 -4.625 "/></g></g></g><g fill="#fdfbe9" fill-opacity="1"><g transform="translate(228.74106, 113.999995)"><g><path d="M 15.1875 -32.125 L 15.1875 -8.359375 C 15.1875 -7.597656 15.394531 -7.003906 15.8125 -6.578125 C 16.238281 -6.148438 16.832031 -5.9375 17.59375 -5.9375 L 24.859375 -5.9375 L 24.859375 0 L 16.9375 0 C 14.332031 0 12.285156 -0.738281 10.796875 -2.21875 C 9.316406 -3.695312 8.578125 -5.742188 8.578125 -8.359375 L 8.578125 -26.1875 L 1.09375 -26.1875 L 1.09375 -32.125 Z M 15.1875 -32.125 "/></g></g></g><g fill="#fdfbe9" fill-opacity="1"><g transform="translate(255.136353, 113.999995)"><g><path d="M 8.234375 -24.203125 L 12.453125 -12.015625 C 12.597656 -11.578125 12.726562 -11.078125 12.84375 -10.515625 C 12.96875 -9.960938 13.054688 -9.4375 13.109375 -8.9375 C 13.171875 -8.320312 13.226562 -7.71875 13.28125 -7.125 L 13.6875 -7.125 C 13.71875 -7.71875 13.757812 -8.320312 13.8125 -8.9375 C 13.875 -9.4375 13.945312 -9.960938 14.03125 -10.515625 C 14.125 -11.078125 14.242188 -11.578125 14.390625 -12.015625 L 18.390625 -24.203125 L 25.296875 -24.203125 L 13.984375 7.265625 L 7.078125 7.265625 L 10.390625 -1.09375 L 1.09375 -24.203125 Z M 8.234375 -24.203125 "/></g></g></g><g fill="#fdfbe9" fill-opacity="1"><g transform="translate(281.531646, 113.999995)"><g><path d="M 12.0625 0.4375 C 9.039062 0.4375 6.675781 -0.140625 4.96875 -1.296875 C 3.269531 -2.453125 2.273438 -4.144531 1.984375 -6.375 L 8.578125 -6.375 C 8.785156 -5.707031 9.1875 -5.195312 9.78125 -4.84375 C 10.382812 -4.488281 11.144531 -4.3125 12.0625 -4.3125 L 14.25 -4.3125 C 15.488281 -4.3125 16.429688 -4.53125 17.078125 -4.96875 C 17.722656 -5.40625 18.046875 -6.035156 18.046875 -6.859375 C 18.046875 -8.296875 16.867188 -9.148438 14.515625 -9.421875 L 11.21875 -9.765625 C 8.195312 -10.085938 5.972656 -10.859375 4.546875 -12.078125 C 3.128906 -13.296875 2.421875 -15.035156 2.421875 -17.296875 C 2.421875 -19.671875 3.25 -21.488281 4.90625 -22.75 C 6.5625 -24.007812 8.945312 -24.640625 12.0625 -24.640625 L 14.25 -24.640625 C 17.1875 -24.640625 19.484375 -24.082031 21.140625 -22.96875 C 22.796875 -21.851562 23.757812 -20.195312 24.03125 -18 L 17.421875 -18 C 17.097656 -19.289062 16.039062 -19.9375 14.25 -19.9375 L 12.0625 -19.9375 C 9.882812 -19.9375 8.796875 -19.203125 8.796875 -17.734375 C 8.796875 -16.328125 9.796875 -15.503906 11.796875 -15.265625 L 15.3125 -14.875 C 21.382812 -14.164062 24.421875 -11.582031 24.421875 -7.125 C 24.421875 -4.632812 23.554688 -2.75 21.828125 -1.46875 C 20.097656 -0.195312 17.570312 0.4375 14.25 0.4375 Z M 12.0625 0.4375 "/></g></g></g><g fill="#fdfbe9" fill-opacity="1"><g transform="translate(307.926939, 113.999995)"><g><path d="M 3.296875 -5.984375 L 11.875 -5.984375 L 11.875 -18.265625 L 4.40625 -18.265625 L 4.40625 -24.203125 L 18.046875 -24.203125 L 18.046875 -5.984375 L 24.859375 -5.984375 L 24.859375 0 L 3.296875 0 Z M 10.5625 -30.578125 C 10.5625 -31.515625 10.859375 -32.257812 11.453125 -32.8125 C 12.054688 -33.375 12.859375 -33.65625 13.859375 -33.65625 L 15.1875 -33.65625 C 16.175781 -33.65625 16.972656 -33.375 17.578125 -32.8125 C 18.179688 -32.257812 18.484375 -31.515625 18.484375 -30.578125 C 18.484375 -29.640625 18.179688 -28.890625 17.578125 -28.328125 C 16.972656 -27.773438 16.160156 -27.5 15.140625 -27.5 L 13.859375 -27.5 C 12.859375 -27.5 12.054688 -27.773438 11.453125 -28.328125 C 10.859375 -28.890625 10.5625 -29.640625 10.5625 -30.578125 Z M 10.5625 -30.578125 "/></g></g></g><g fill="#fdfbe9" fill-opacity="1"><g transform="translate(334.322232, 113.999995)"><g><path d="M 12.0625 0.4375 C 9.039062 0.4375 6.675781 -0.140625 4.96875 -1.296875 C 3.269531 -2.453125 2.273438 -4.144531 1.984375 -6.375 L 8.578125 -6.375 C 8.785156 -5.707031 9.1875 -5.195312 9.78125 -4.84375 C 10.382812 -4.488281 11.144531 -4.3125 12.0625 -4.3125 L 14.25 -4.3125 C 15.488281 -4.3125 16.429688 -4.53125 17.078125 -4.96875 C 17.722656 -5.40625 18.046875 -6.035156 18.046875 -6.859375 C 18.046875 -8.296875 16.867188 -9.148438 14.515625 -9.421875 L 11.21875 -9.765625 C 8.195312 -10.085938 5.972656 -10.859375 4.546875 -12.078125 C 3.128906 -13.296875 2.421875 -15.035156 2.421875 -17.296875 C 2.421875 -19.671875 3.25 -21.488281 4.90625 -22.75 C 6.5625 -24.007812 8.945312 -24.640625 12.0625 -24.640625 L 14.25 -24.640625 C 17.1875 -24.640625 19.484375 -24.082031 21.140625 -22.96875 C 22.796875 -21.851562 23.757812 -20.195312 24.03125 -18 L 17.421875 -18 C 17.097656 -19.289062 16.039062 -19.9375 14.25 -19.9375 L 12.0625 -19.9375 C 9.882812 -19.9375 8.796875 -19.203125 8.796875 -17.734375 C 8.796875 -16.328125 9.796875 -15.503906 11.796875 -15.265625 L 15.3125 -14.875 C 21.382812 -14.164062 24.421875 -11.582031 24.421875 -7.125 C 24.421875 -4.632812 23.554688 -2.75 21.828125 -1.46875 C 20.097656 -0.195312 17.570312 0.4375 14.25 0.4375 Z M 12.0625 0.4375 "/></g></g></g><g fill="#fdfbe9" fill-opacity="1"><g transform="translate(387.112817, 113.999995)"><g><path d="M 13.203125 -6.15625 C 14.546875 -6.15625 15.628906 -6.535156 16.453125 -7.296875 C 17.273438 -8.066406 17.6875 -9.082031 17.6875 -10.34375 L 17.6875 -21.390625 C 17.6875 -22.617188 17.273438 -23.613281 16.453125 -24.375 C 15.628906 -25.132812 14.546875 -25.515625 13.203125 -25.515625 L 9.375 -25.515625 L 9.375 -6.15625 Z M 2.765625 0 L 2.765625 -31.6875 L 13.203125 -31.6875 C 14.867188 -31.6875 16.382812 -31.441406 17.75 -30.953125 C 19.113281 -30.472656 20.28125 -29.773438 21.25 -28.859375 C 22.21875 -27.953125 22.960938 -26.867188 23.484375 -25.609375 C 24.015625 -24.347656 24.28125 -22.941406 24.28125 -21.390625 L 24.28125 -10.34375 C 24.28125 -8.789062 24.015625 -7.375 23.484375 -6.09375 C 22.960938 -4.820312 22.21875 -3.738281 21.25 -2.84375 C 20.28125 -1.945312 19.113281 -1.25 17.75 -0.75 C 16.382812 -0.25 14.867188 0 13.203125 0 Z M 2.765625 0 "/></g></g></g><g fill="#fdfbe9" fill-opacity="1"><g transform="translate(413.50811, 113.999995)"><g><path d="M 3.296875 -5.984375 L 11.875 -5.984375 L 11.875 -18.265625 L 4.40625 -18.265625 L 4.40625 -24.203125 L 18.046875 -24.203125 L 18.046875 -5.984375 L 24.859375 -5.984375 L 24.859375 0 L 3.296875 0 Z M 10.5625 -30.578125 C 10.5625 -31.515625 10.859375 -32.257812 11.453125 -32.8125 C 12.054688 -33.375 12.859375 -33.65625 13.859375 -33.65625 L 15.1875 -33.65625 C 16.175781 -33.65625 16.972656 -33.375 17.578125 -32.8125 C 18.179688 -32.257812 18.484375 -31.515625 18.484375 -30.578125 C 18.484375 -29.640625 18.179688 -28.890625 17.578125 -28.328125 C 16.972656 -27.773438 16.160156 -27.5 15.140625 -27.5 L 13.859375 -27.5 C 12.859375 -27.5 12.054688 -27.773438 11.453125 -28.328125 C 10.859375 -28.890625 10.5625 -29.640625 10.5625 -30.578125 Z M 10.5625 -30.578125 "/></g></g></g><g fill="#fdfbe9" fill-opacity="1"><g transform="translate(439.903403, 113.999995)"><g><path d="M 1.890625 -6.59375 C 1.890625 -9.0625 2.785156 -11.003906 4.578125 -12.421875 C 6.367188 -13.847656 8.800781 -14.5625 11.875 -14.5625 L 17.109375 -14.5625 L 17.109375 -16.71875 C 17.109375 -17.570312 16.75 -18.257812 16.03125 -18.78125 C 15.3125 -19.3125 14.335938 -19.578125 13.109375 -19.578125 C 12.023438 -19.578125 11.125 -19.378906 10.40625 -18.984375 C 9.6875 -18.585938 9.222656 -18.050781 9.015625 -17.375 L 2.640625 -17.375 C 2.816406 -18.488281 3.191406 -19.492188 3.765625 -20.390625 C 4.335938 -21.285156 5.078125 -22.046875 5.984375 -22.671875 C 6.890625 -23.304688 7.941406 -23.789062 9.140625 -24.125 C 10.347656 -24.46875 11.671875 -24.640625 13.109375 -24.640625 C 14.691406 -24.640625 16.132812 -24.445312 17.4375 -24.0625 C 18.75 -23.6875 19.863281 -23.148438 20.78125 -22.453125 C 21.707031 -21.765625 22.425781 -20.9375 22.9375 -19.96875 C 23.457031 -19.007812 23.71875 -17.925781 23.71875 -16.71875 L 23.71875 0 L 17.421875 0 L 17.421875 -4.84375 L 17.03125 -4.84375 C 16.820312 -3.195312 16.050781 -1.90625 14.71875 -0.96875 C 13.382812 -0.03125 11.691406 0.4375 9.640625 0.4375 C 7.265625 0.4375 5.378906 -0.191406 3.984375 -1.453125 C 2.585938 -2.710938 1.890625 -4.425781 1.890625 -6.59375 Z M 12.3125 -4.625 C 13.726562 -4.625 14.878906 -4.953125 15.765625 -5.609375 C 16.660156 -6.265625 17.109375 -7.109375 17.109375 -8.140625 L 17.109375 -10.609375 L 11.875 -10.609375 C 10.851562 -10.609375 10.03125 -10.347656 9.40625 -9.828125 C 8.789062 -9.316406 8.484375 -8.59375 8.484375 -7.65625 C 8.484375 -6.71875 8.8125 -5.976562 9.46875 -5.4375 C 10.132812 -4.894531 11.082031 -4.625 12.3125 -4.625 Z M 12.3125 -4.625 "/></g></g></g><g fill="#fdfbe9" fill-opacity="1"><g transform="translate(466.298696, 113.999995)"><g><path d="M 3.609375 -24.203125 L 9.859375 -24.203125 L 9.859375 -20.015625 L 10.296875 -20.015625 C 10.523438 -21.515625 11.210938 -22.660156 12.359375 -23.453125 C 13.503906 -24.242188 15.015625 -24.640625 16.890625 -24.640625 C 19.566406 -24.640625 21.632812 -23.820312 23.09375 -22.1875 C 24.5625 -20.5625 25.296875 -18.300781 25.296875 -15.40625 L 25.296875 -13.421875 L 18.265625 -13.421875 L 18.265625 -14.953125 C 18.265625 -16.273438 17.878906 -17.300781 17.109375 -18.03125 C 16.347656 -18.769531 15.304688 -19.140625 13.984375 -19.140625 C 12.816406 -19.140625 11.894531 -18.765625 11.21875 -18.015625 C 10.539062 -17.265625 10.203125 -16.242188 10.203125 -14.953125 L 10.203125 0 L 3.609375 0 Z M 3.609375 -24.203125 "/></g></g></g><g fill="#fdfbe9" fill-opacity="1"><g transform="translate(492.693989, 113.999995)"><g><path d="M 8.234375 -24.203125 L 12.453125 -12.015625 C 12.597656 -11.578125 12.726562 -11.078125 12.84375 -10.515625 C 12.96875 -9.960938 13.054688 -9.4375 13.109375 -8.9375 C 13.171875 -8.320312 13.226562 -7.71875 13.28125 -7.125 L 13.6875 -7.125 C 13.71875 -7.71875 13.757812 -8.320312 13.8125 -8.9375 C 13.875 -9.4375 13.945312 -9.960938 14.03125 -10.515625 C 14.125 -11.078125 14.242188 -11.578125 14.390625 -12.015625 L 18.390625 -24.203125 L 25.296875 -24.203125 L 13.984375 7.265625 L 7.078125 7.265625 L 10.390625 -1.09375 L 1.09375 -24.203125 Z M 8.234375 -24.203125 "/></g></g></g></svg>