<svg xmlns="http://www.w3.org/2000/svg" xmlns:xlink="http://www.w3.org/1999/xlink" width="700" zoomAndPan="magnify" viewBox="0 0 525 149.999998" height="200" preserveAspectRatio="xMidYMid meet" version="1.0"><defs><g/><clipPath id="f82c649f23"><path d="M 24.523438 18.734375 L 137.375 18.734375 L 137.375 131.585938 L 24.523438 131.585938 Z M 24.523438 18.734375 " clip-rule="nonzero"/></clipPath><clipPath id="4cc293cbeb"><path d="M 41.773438 18.734375 L 120.03125 18.734375 C 129.558594 18.734375 137.28125 26.457031 137.28125 35.984375 L 137.28125 114.015625 C 137.28125 123.542969 129.558594 131.265625 120.03125 131.265625 L 41.773438 131.265625 C 32.246094 131.265625 24.523438 123.542969 24.523438 114.015625 L 24.523438 35.984375 C 24.523438 26.457031 32.246094 18.734375 41.773438 18.734375 " clip-rule="nonzero"/></clipPath></defs><g clip-path="url(#f82c649f23)"><g clip-path="url(#4cc293cbeb)"><path fill="#fdfbe9" d="M 24.523438 18.734375 L 137.375 18.734375 L 137.375 131.234375 L 24.523438 131.234375 Z M 24.523438 18.734375 " fill-opacity="1" fill-rule="nonzero"/></g></g><g fill="#746057" fill-opacity="1"><g transform="translate(57.222847, 103.874996)"><g><path d="M 23.84375 0.640625 C 19.675781 0.640625 16.019531 -0.0507812 12.875 -1.4375 C 9.726562 -2.820312 7.300781 -4.769531 5.59375 -7.28125 C 3.894531 -9.789062 3.046875 -12.722656 3.046875 -16.078125 L 3.046875 -17.4375 C 3.046875 -18.34375 3.5 -18.796875 4.40625 -18.796875 L 12.796875 -18.796875 C 13.703125 -18.796875 14.15625 -18.453125 14.15625 -17.765625 L 14.15625 -16.640625 C 14.15625 -14.503906 15.128906 -12.703125 17.078125 -11.234375 C 19.023438 -9.773438 21.570312 -9.046875 24.71875 -9.046875 C 27.539062 -9.046875 29.632812 -9.644531 31 -10.84375 C 32.363281 -12.039062 33.046875 -13.519531 33.046875 -15.28125 C 33.046875 -16.5625 32.617188 -17.640625 31.765625 -18.515625 C 30.910156 -19.398438 29.757812 -20.175781 28.3125 -20.84375 C 26.875 -21.507812 24.554688 -22.425781 21.359375 -23.59375 C 17.734375 -24.820312 14.691406 -26.078125 12.234375 -27.359375 C 9.785156 -28.640625 7.707031 -30.382812 6 -32.59375 C 4.289062 -34.8125 3.4375 -37.546875 3.4375 -40.796875 C 3.4375 -43.992188 4.265625 -46.789062 5.921875 -49.1875 C 7.578125 -51.59375 9.882812 -53.4375 12.84375 -54.71875 C 15.800781 -56 19.171875 -56.640625 22.953125 -56.640625 C 27.015625 -56.640625 30.644531 -55.914062 33.84375 -54.46875 C 37.039062 -53.03125 39.53125 -51.019531 41.3125 -48.4375 C 43.101562 -45.851562 44 -42.851562 44 -39.4375 L 44 -38.640625 C 44 -37.734375 43.546875 -37.28125 42.640625 -37.28125 L 34.234375 -37.28125 C 33.328125 -37.28125 32.875 -37.546875 32.875 -38.078125 L 32.875 -38.875 C 32.875 -41.113281 31.953125 -43.019531 30.109375 -44.59375 C 28.273438 -46.164062 25.757812 -46.953125 22.5625 -46.953125 C 20 -46.953125 18.023438 -46.421875 16.640625 -45.359375 C 15.253906 -44.296875 14.5625 -42.828125 14.5625 -40.953125 C 14.5625 -39.617188 14.957031 -38.5 15.75 -37.59375 C 16.550781 -36.6875 17.765625 -35.859375 19.390625 -35.109375 C 21.023438 -34.367188 23.546875 -33.410156 26.953125 -32.234375 C 30.691406 -30.847656 33.65625 -29.632812 35.84375 -28.59375 C 38.03125 -27.5625 39.988281 -25.976562 41.71875 -23.84375 C 43.445312 -21.707031 44.3125 -18.957031 44.3125 -15.59375 C 44.3125 -12.34375 43.472656 -9.488281 41.796875 -7.03125 C 40.117188 -4.582031 37.742188 -2.691406 34.671875 -1.359375 C 31.609375 -0.0234375 28 0.640625 23.84375 0.640625 Z M 23.84375 0.640625 "/></g></g></g><g fill="#fdfbe9" fill-opacity="1"><g transform="translate(210.554436, 66.749998)"><g><path d="M 13.15625 0.40625 C 10.851562 0.40625 8.832031 0 7.09375 -0.8125 C 5.363281 -1.632812 4.023438 -2.785156 3.078125 -4.265625 C 2.128906 -5.753906 1.65625 -7.46875 1.65625 -9.40625 L 1.65625 -10.703125 C 1.65625 -10.867188 1.710938 -11.007812 1.828125 -11.125 C 1.941406 -11.238281 2.082031 -11.296875 2.25 -11.296875 L 8 -11.296875 C 8.164062 -11.296875 8.304688 -11.238281 8.421875 -11.125 C 8.535156 -11.007812 8.59375 -10.867188 8.59375 -10.703125 L 8.59375 -9.75 C 8.59375 -8.582031 9.023438 -7.609375 9.890625 -6.828125 C 10.765625 -6.046875 11.9375 -5.65625 13.40625 -5.65625 C 14.695312 -5.65625 15.6875 -5.988281 16.375 -6.65625 C 17.0625 -7.320312 17.40625 -8.171875 17.40625 -9.203125 C 17.40625 -9.960938 17.1875 -10.617188 16.75 -11.171875 C 16.3125 -11.722656 15.703125 -12.238281 14.921875 -12.71875 C 14.140625 -13.207031 12.929688 -13.867188 11.296875 -14.703125 C 9.296875 -15.703125 7.660156 -16.632812 6.390625 -17.5 C 5.128906 -18.363281 4.046875 -19.476562 3.140625 -20.84375 C 2.242188 -22.21875 1.796875 -23.867188 1.796875 -25.796875 C 1.796875 -27.734375 2.253906 -29.425781 3.171875 -30.875 C 4.085938 -32.320312 5.378906 -33.4375 7.046875 -34.21875 C 8.710938 -35.007812 10.613281 -35.40625 12.75 -35.40625 C 14.976562 -35.40625 16.957031 -34.976562 18.6875 -34.125 C 20.425781 -33.269531 21.78125 -32.078125 22.75 -30.546875 C 23.71875 -29.015625 24.203125 -27.25 24.203125 -25.25 L 24.203125 -24.25 C 24.203125 -24.082031 24.140625 -23.941406 24.015625 -23.828125 C 23.898438 -23.710938 23.757812 -23.65625 23.59375 -23.65625 L 17.84375 -23.65625 C 17.675781 -23.65625 17.535156 -23.710938 17.421875 -23.828125 C 17.304688 -23.941406 17.25 -24.082031 17.25 -24.25 L 17.25 -25.15625 C 17.25 -26.351562 16.832031 -27.347656 16 -28.140625 C 15.164062 -28.941406 14.03125 -29.34375 12.59375 -29.34375 C 11.394531 -29.34375 10.453125 -29.035156 9.765625 -28.421875 C 9.085938 -27.804688 8.75 -26.945312 8.75 -25.84375 C 8.75 -25.082031 8.945312 -24.414062 9.34375 -23.84375 C 9.75 -23.28125 10.367188 -22.738281 11.203125 -22.21875 C 12.035156 -21.707031 13.300781 -21.035156 15 -20.203125 L 16.046875 -19.59375 C 17.984375 -18.53125 19.492188 -17.609375 20.578125 -16.828125 C 21.660156 -16.046875 22.566406 -15.050781 23.296875 -13.84375 C 24.035156 -12.644531 24.40625 -11.195312 24.40625 -9.5 C 24.40625 -6.46875 23.378906 -4.054688 21.328125 -2.265625 C 19.273438 -0.484375 16.550781 0.40625 13.15625 0.40625 Z M 13.15625 0.40625 "/></g></g></g><g fill="#fdfbe9" fill-opacity="1"><g transform="translate(236.55041, 66.749998)"><g><path d="M 23.953125 -29.546875 C 23.953125 -29.378906 23.890625 -29.238281 23.765625 -29.125 C 23.648438 -29.007812 23.507812 -28.953125 23.34375 -28.953125 L 9.953125 -28.953125 C 9.785156 -28.953125 9.703125 -28.867188 9.703125 -28.703125 L 9.703125 -20.90625 C 9.703125 -20.738281 9.785156 -20.65625 9.953125 -20.65625 L 18.296875 -20.65625 C 18.460938 -20.65625 18.601562 -20.59375 18.71875 -20.46875 C 18.84375 -20.351562 18.90625 -20.210938 18.90625 -20.046875 L 18.90625 -15.203125 C 18.90625 -15.035156 18.84375 -14.890625 18.71875 -14.765625 C 18.601562 -14.648438 18.460938 -14.59375 18.296875 -14.59375 L 9.953125 -14.59375 C 9.785156 -14.59375 9.703125 -14.507812 9.703125 -14.34375 L 9.703125 -6.296875 C 9.703125 -6.128906 9.785156 -6.046875 9.953125 -6.046875 L 23.34375 -6.046875 C 23.507812 -6.046875 23.648438 -5.988281 23.765625 -5.875 C 23.890625 -5.757812 23.953125 -5.617188 23.953125 -5.453125 L 23.953125 -0.59375 C 23.953125 -0.425781 23.890625 -0.285156 23.765625 -0.171875 C 23.648438 -0.0546875 23.507812 0 23.34375 0 L 3.25 0 C 3.082031 0 2.941406 -0.0546875 2.828125 -0.171875 C 2.710938 -0.285156 2.65625 -0.425781 2.65625 -0.59375 L 2.65625 -34.40625 C 2.65625 -34.570312 2.710938 -34.710938 2.828125 -34.828125 C 2.941406 -34.941406 3.082031 -35 3.25 -35 L 23.34375 -35 C 23.507812 -35 23.648438 -34.941406 23.765625 -34.828125 C 23.890625 -34.710938 23.953125 -34.570312 23.953125 -34.40625 Z M 23.953125 -29.546875 "/></g></g></g><g fill="#fdfbe9" fill-opacity="1"><g transform="translate(262.096459, 66.749998)"><g><path d="M 19.84375 -34.40625 C 19.84375 -34.570312 19.898438 -34.710938 20.015625 -34.828125 C 20.140625 -34.941406 20.285156 -35 20.453125 -35 L 26.25 -35 C 26.414062 -35 26.554688 -34.941406 26.671875 -34.828125 C 26.785156 -34.710938 26.84375 -34.570312 26.84375 -34.40625 L 26.84375 -0.59375 C 26.84375 -0.425781 26.785156 -0.285156 26.671875 -0.171875 C 26.554688 -0.0546875 26.414062 0 26.25 0 L 20.15625 0 C 19.820312 0 19.585938 -0.148438 19.453125 -0.453125 L 9.90625 -20.796875 C 9.832031 -20.898438 9.757812 -20.953125 9.6875 -20.953125 C 9.625 -20.953125 9.59375 -20.882812 9.59375 -20.75 L 9.65625 -0.59375 C 9.65625 -0.425781 9.59375 -0.285156 9.46875 -0.171875 C 9.351562 -0.0546875 9.210938 0 9.046875 0 L 3.25 0 C 3.082031 0 2.941406 -0.0546875 2.828125 -0.171875 C 2.710938 -0.285156 2.65625 -0.425781 2.65625 -0.59375 L 2.65625 -34.40625 C 2.65625 -34.570312 2.710938 -34.710938 2.828125 -34.828125 C 2.941406 -34.941406 3.082031 -35 3.25 -35 L 9.296875 -35 C 9.628906 -35 9.863281 -34.847656 10 -34.546875 L 19.546875 -14.203125 C 19.617188 -14.097656 19.6875 -14.046875 19.75 -14.046875 C 19.8125 -14.046875 19.84375 -14.113281 19.84375 -14.25 Z M 19.84375 -34.40625 "/></g></g></g><g fill="#fdfbe9" fill-opacity="1"><g transform="translate(291.591887, 66.749998)"><g><path d="M 24.40625 -35 C 24.570312 -35 24.710938 -34.941406 24.828125 -34.828125 C 24.941406 -34.710938 25 -34.570312 25 -34.40625 L 25 -29.5 C 25 -29.332031 24.941406 -29.191406 24.828125 -29.078125 C 24.710938 -28.960938 24.570312 -28.90625 24.40625 -28.90625 L 16.796875 -28.90625 C 16.628906 -28.90625 16.546875 -28.820312 16.546875 -28.65625 L 16.546875 -0.59375 C 16.546875 -0.425781 16.488281 -0.285156 16.375 -0.171875 C 16.257812 -0.0546875 16.117188 0 15.953125 0 L 10.09375 0 C 9.925781 0 9.785156 -0.0546875 9.671875 -0.171875 C 9.554688 -0.285156 9.5 -0.425781 9.5 -0.59375 L 9.5 -28.65625 C 9.5 -28.820312 9.414062 -28.90625 9.25 -28.90625 L 1.90625 -28.90625 C 1.738281 -28.90625 1.59375 -28.960938 1.46875 -29.078125 C 1.351562 -29.191406 1.296875 -29.332031 1.296875 -29.5 L 1.296875 -34.40625 C 1.296875 -34.570312 1.351562 -34.710938 1.46875 -34.828125 C 1.59375 -34.941406 1.738281 -35 1.90625 -35 Z M 24.40625 -35 "/></g></g></g><g fill="#fdfbe9" fill-opacity="1"><g transform="translate(317.887811, 66.749998)"><g><path d="M 3.25 0 C 3.082031 0 2.941406 -0.0546875 2.828125 -0.171875 C 2.710938 -0.285156 2.65625 -0.425781 2.65625 -0.59375 L 2.65625 -34.40625 C 2.65625 -34.570312 2.710938 -34.710938 2.828125 -34.828125 C 2.941406 -34.941406 3.082031 -35 3.25 -35 L 9.09375 -35 C 9.257812 -35 9.398438 -34.941406 9.515625 -34.828125 C 9.640625 -34.710938 9.703125 -34.570312 9.703125 -34.40625 L 9.703125 -0.59375 C 9.703125 -0.425781 9.640625 -0.285156 9.515625 -0.171875 C 9.398438 -0.0546875 9.257812 0 9.09375 0 Z M 3.25 0 "/></g></g></g><g fill="#fdfbe9" fill-opacity="1"><g transform="translate(330.185906, 66.749998)"><g><path d="M 21.90625 -34.59375 C 22.03125 -34.863281 22.257812 -35 22.59375 -35 L 28.40625 -35 C 28.570312 -35 28.710938 -34.941406 28.828125 -34.828125 C 28.941406 -34.710938 29 -34.570312 29 -34.40625 L 29 -0.59375 C 29 -0.425781 28.941406 -0.285156 28.828125 -0.171875 C 28.710938 -0.0546875 28.570312 0 28.40625 0 L 22.546875 0 C 22.378906 0 22.238281 -0.0546875 22.125 -0.171875 C 22.007812 -0.285156 21.953125 -0.425781 21.953125 -0.59375 L 21.953125 -22.796875 C 21.953125 -22.929688 21.914062 -23.003906 21.84375 -23.015625 C 21.78125 -23.035156 21.71875 -23 21.65625 -22.90625 L 17.046875 -15.296875 C 16.910156 -15.035156 16.675781 -14.90625 16.34375 -14.90625 L 15.203125 -14.90625 C 14.867188 -14.90625 14.632812 -15.035156 14.5 -15.296875 L 9.90625 -22.90625 C 9.832031 -23 9.757812 -23.035156 9.6875 -23.015625 C 9.625 -23.003906 9.59375 -22.929688 9.59375 -22.796875 L 9.59375 -0.59375 C 9.59375 -0.425781 9.535156 -0.285156 9.421875 -0.171875 C 9.304688 -0.0546875 9.164062 0 9 0 L 3.15625 0 C 2.988281 0 2.84375 -0.0546875 2.71875 -0.171875 C 2.601562 -0.285156 2.546875 -0.425781 2.546875 -0.59375 L 2.546875 -34.40625 C 2.546875 -34.570312 2.601562 -34.710938 2.71875 -34.828125 C 2.84375 -34.941406 2.988281 -35 3.15625 -35 L 8.953125 -35 C 9.285156 -35 9.519531 -34.863281 9.65625 -34.59375 L 15.65625 -24.75 C 15.75 -24.550781 15.847656 -24.550781 15.953125 -24.75 Z M 21.90625 -34.59375 "/></g></g></g><g fill="#fdfbe9" fill-opacity="1"><g transform="translate(361.731017, 66.749998)"><g><path d="M 23.953125 -29.546875 C 23.953125 -29.378906 23.890625 -29.238281 23.765625 -29.125 C 23.648438 -29.007812 23.507812 -28.953125 23.34375 -28.953125 L 9.953125 -28.953125 C 9.785156 -28.953125 9.703125 -28.867188 9.703125 -28.703125 L 9.703125 -20.90625 C 9.703125 -20.738281 9.785156 -20.65625 9.953125 -20.65625 L 18.296875 -20.65625 C 18.460938 -20.65625 18.601562 -20.59375 18.71875 -20.46875 C 18.84375 -20.351562 18.90625 -20.210938 18.90625 -20.046875 L 18.90625 -15.203125 C 18.90625 -15.035156 18.84375 -14.890625 18.71875 -14.765625 C 18.601562 -14.648438 18.460938 -14.59375 18.296875 -14.59375 L 9.953125 -14.59375 C 9.785156 -14.59375 9.703125 -14.507812 9.703125 -14.34375 L 9.703125 -6.296875 C 9.703125 -6.128906 9.785156 -6.046875 9.953125 -6.046875 L 23.34375 -6.046875 C 23.507812 -6.046875 23.648438 -5.988281 23.765625 -5.875 C 23.890625 -5.757812 23.953125 -5.617188 23.953125 -5.453125 L 23.953125 -0.59375 C 23.953125 -0.425781 23.890625 -0.285156 23.765625 -0.171875 C 23.648438 -0.0546875 23.507812 0 23.34375 0 L 3.25 0 C 3.082031 0 2.941406 -0.0546875 2.828125 -0.171875 C 2.710938 -0.285156 2.65625 -0.425781 2.65625 -0.59375 L 2.65625 -34.40625 C 2.65625 -34.570312 2.710938 -34.710938 2.828125 -34.828125 C 2.941406 -34.941406 3.082031 -35 3.25 -35 L 23.34375 -35 C 23.507812 -35 23.648438 -34.941406 23.765625 -34.828125 C 23.890625 -34.710938 23.953125 -34.570312 23.953125 -34.40625 Z M 23.953125 -29.546875 "/></g></g></g><g fill="#fdfbe9" fill-opacity="1"><g transform="translate(387.277066, 66.749998)"><g><path d="M 19.84375 -34.40625 C 19.84375 -34.570312 19.898438 -34.710938 20.015625 -34.828125 C 20.140625 -34.941406 20.285156 -35 20.453125 -35 L 26.25 -35 C 26.414062 -35 26.554688 -34.941406 26.671875 -34.828125 C 26.785156 -34.710938 26.84375 -34.570312 26.84375 -34.40625 L 26.84375 -0.59375 C 26.84375 -0.425781 26.785156 -0.285156 26.671875 -0.171875 C 26.554688 -0.0546875 26.414062 0 26.25 0 L 20.15625 0 C 19.820312 0 19.585938 -0.148438 19.453125 -0.453125 L 9.90625 -20.796875 C 9.832031 -20.898438 9.757812 -20.953125 9.6875 -20.953125 C 9.625 -20.953125 9.59375 -20.882812 9.59375 -20.75 L 9.65625 -0.59375 C 9.65625 -0.425781 9.59375 -0.285156 9.46875 -0.171875 C 9.351562 -0.0546875 9.210938 0 9.046875 0 L 3.25 0 C 3.082031 0 2.941406 -0.0546875 2.828125 -0.171875 C 2.710938 -0.285156 2.65625 -0.425781 2.65625 -0.59375 L 2.65625 -34.40625 C 2.65625 -34.570312 2.710938 -34.710938 2.828125 -34.828125 C 2.941406 -34.941406 3.082031 -35 3.25 -35 L 9.296875 -35 C 9.628906 -35 9.863281 -34.847656 10 -34.546875 L 19.546875 -14.203125 C 19.617188 -14.097656 19.6875 -14.046875 19.75 -14.046875 C 19.8125 -14.046875 19.84375 -14.113281 19.84375 -14.25 Z M 19.84375 -34.40625 "/></g></g></g><g fill="#fdfbe9" fill-opacity="1"><g transform="translate(416.772494, 66.749998)"><g><path d="M 24.40625 -35 C 24.570312 -35 24.710938 -34.941406 24.828125 -34.828125 C 24.941406 -34.710938 25 -34.570312 25 -34.40625 L 25 -29.5 C 25 -29.332031 24.941406 -29.191406 24.828125 -29.078125 C 24.710938 -28.960938 24.570312 -28.90625 24.40625 -28.90625 L 16.796875 -28.90625 C 16.628906 -28.90625 16.546875 -28.820312 16.546875 -28.65625 L 16.546875 -0.59375 C 16.546875 -0.425781 16.488281 -0.285156 16.375 -0.171875 C 16.257812 -0.0546875 16.117188 0 15.953125 0 L 10.09375 0 C 9.925781 0 9.785156 -0.0546875 9.671875 -0.171875 C 9.554688 -0.285156 9.5 -0.425781 9.5 -0.59375 L 9.5 -28.65625 C 9.5 -28.820312 9.414062 -28.90625 9.25 -28.90625 L 1.90625 -28.90625 C 1.738281 -28.90625 1.59375 -28.960938 1.46875 -29.078125 C 1.351562 -29.191406 1.296875 -29.332031 1.296875 -29.5 L 1.296875 -34.40625 C 1.296875 -34.570312 1.351562 -34.710938 1.46875 -34.828125 C 1.59375 -34.941406 1.738281 -35 1.90625 -35 Z M 24.40625 -35 "/></g></g></g><g fill="#fdfbe9" fill-opacity="1"><g transform="translate(443.066145, 66.749998)"><g/></g></g><g fill="#fdfbe9" fill-opacity="1"><g transform="translate(163.48022, 121.499995)"><g><path d="M 21.15625 0 C 20.78125 0 20.546875 -0.164062 20.453125 -0.5 L 19.296875 -5.40625 C 19.265625 -5.53125 19.179688 -5.59375 19.046875 -5.59375 L 9.703125 -5.59375 C 9.566406 -5.59375 9.484375 -5.53125 9.453125 -5.40625 L 8.296875 -0.5 C 8.203125 -0.164062 7.988281 0 7.65625 0 L 1.59375 0 C 1.164062 0 1 -0.21875 1.09375 -0.65625 L 10.09375 -34.5 C 10.195312 -34.832031 10.429688 -35 10.796875 -35 L 18.046875 -35 C 18.410156 -35 18.644531 -34.832031 18.75 -34.5 L 27.75 -0.65625 L 27.796875 -0.453125 C 27.796875 -0.148438 27.613281 0 27.25 0 Z M 10.796875 -11.34375 C 10.765625 -11.25 10.78125 -11.175781 10.84375 -11.125 C 10.914062 -11.070312 10.984375 -11.046875 11.046875 -11.046875 L 17.65625 -11.046875 C 17.71875 -11.046875 17.78125 -11.070312 17.84375 -11.125 C 17.914062 -11.175781 17.9375 -11.25 17.90625 -11.34375 L 14.453125 -25.84375 C 14.421875 -25.976562 14.367188 -26.046875 14.296875 -26.046875 C 14.234375 -26.046875 14.1875 -25.976562 14.15625 -25.84375 Z M 10.796875 -11.34375 "/></g></g></g><g fill="#fdfbe9" fill-opacity="1"><g transform="translate(192.32575, 121.499995)"><g><path d="M 19.84375 -34.40625 C 19.84375 -34.570312 19.898438 -34.710938 20.015625 -34.828125 C 20.140625 -34.941406 20.285156 -35 20.453125 -35 L 26.25 -35 C 26.414062 -35 26.554688 -34.941406 26.671875 -34.828125 C 26.785156 -34.710938 26.84375 -34.570312 26.84375 -34.40625 L 26.84375 -0.59375 C 26.84375 -0.425781 26.785156 -0.285156 26.671875 -0.171875 C 26.554688 -0.0546875 26.414062 0 26.25 0 L 20.15625 0 C 19.820312 0 19.585938 -0.148438 19.453125 -0.453125 L 9.90625 -20.796875 C 9.832031 -20.898438 9.757812 -20.953125 9.6875 -20.953125 C 9.625 -20.953125 9.59375 -20.882812 9.59375 -20.75 L 9.65625 -0.59375 C 9.65625 -0.425781 9.59375 -0.285156 9.46875 -0.171875 C 9.351562 -0.0546875 9.210938 0 9.046875 0 L 3.25 0 C 3.082031 0 2.941406 -0.0546875 2.828125 -0.171875 C 2.710938 -0.285156 2.65625 -0.425781 2.65625 -0.59375 L 2.65625 -34.40625 C 2.65625 -34.570312 2.710938 -34.710938 2.828125 -34.828125 C 2.941406 -34.941406 3.082031 -35 3.25 -35 L 9.296875 -35 C 9.628906 -35 9.863281 -34.847656 10 -34.546875 L 19.546875 -14.203125 C 19.617188 -14.097656 19.6875 -14.046875 19.75 -14.046875 C 19.8125 -14.046875 19.84375 -14.113281 19.84375 -14.25 Z M 19.84375 -34.40625 "/></g></g></g><g fill="#fdfbe9" fill-opacity="1"><g transform="translate(221.821178, 121.499995)"><g><path d="M 21.15625 0 C 20.78125 0 20.546875 -0.164062 20.453125 -0.5 L 19.296875 -5.40625 C 19.265625 -5.53125 19.179688 -5.59375 19.046875 -5.59375 L 9.703125 -5.59375 C 9.566406 -5.59375 9.484375 -5.53125 9.453125 -5.40625 L 8.296875 -0.5 C 8.203125 -0.164062 7.988281 0 7.65625 0 L 1.59375 0 C 1.164062 0 1 -0.21875 1.09375 -0.65625 L 10.09375 -34.5 C 10.195312 -34.832031 10.429688 -35 10.796875 -35 L 18.046875 -35 C 18.410156 -35 18.644531 -34.832031 18.75 -34.5 L 27.75 -0.65625 L 27.796875 -0.453125 C 27.796875 -0.148438 27.613281 0 27.25 0 Z M 10.796875 -11.34375 C 10.765625 -11.25 10.78125 -11.175781 10.84375 -11.125 C 10.914062 -11.070312 10.984375 -11.046875 11.046875 -11.046875 L 17.65625 -11.046875 C 17.71875 -11.046875 17.78125 -11.070312 17.84375 -11.125 C 17.914062 -11.175781 17.9375 -11.25 17.90625 -11.34375 L 14.453125 -25.84375 C 14.421875 -25.976562 14.367188 -26.046875 14.296875 -26.046875 C 14.234375 -26.046875 14.1875 -25.976562 14.15625 -25.84375 Z M 10.796875 -11.34375 "/></g></g></g><g fill="#fdfbe9" fill-opacity="1"><g transform="translate(250.666708, 121.499995)"><g><path d="M 3.25 0 C 3.082031 0 2.941406 -0.0546875 2.828125 -0.171875 C 2.710938 -0.285156 2.65625 -0.425781 2.65625 -0.59375 L 2.65625 -34.40625 C 2.65625 -34.570312 2.710938 -34.710938 2.828125 -34.828125 C 2.941406 -34.941406 3.082031 -35 3.25 -35 L 9.09375 -35 C 9.257812 -35 9.398438 -34.941406 9.515625 -34.828125 C 9.640625 -34.710938 9.703125 -34.570312 9.703125 -34.40625 L 9.703125 -6.296875 C 9.703125 -6.128906 9.785156 -6.046875 9.953125 -6.046875 L 23.34375 -6.046875 C 23.507812 -6.046875 23.648438 -5.988281 23.765625 -5.875 C 23.890625 -5.757812 23.953125 -5.617188 23.953125 -5.453125 L 23.953125 -0.59375 C 23.953125 -0.425781 23.890625 -0.285156 23.765625 -0.171875 C 23.648438 -0.0546875 23.507812 0 23.34375 0 Z M 3.25 0 "/></g></g></g><g fill="#fdfbe9" fill-opacity="1"><g transform="translate(275.612847, 121.499995)"><g><path d="M 10.703125 -0.046875 C 10.535156 -0.046875 10.390625 -0.101562 10.265625 -0.21875 C 10.148438 -0.34375 10.09375 -0.488281 10.09375 -0.65625 L 10.09375 -13.453125 L 10.046875 -13.75 L 1.40625 -34.296875 C 1.363281 -34.367188 1.34375 -34.46875 1.34375 -34.59375 C 1.34375 -34.863281 1.507812 -35 1.84375 -35 L 8.15625 -35 C 8.519531 -35 8.75 -34.832031 8.84375 -34.5 L 13.5 -21.84375 C 13.53125 -21.75 13.578125 -21.703125 13.640625 -21.703125 C 13.710938 -21.703125 13.765625 -21.75 13.796875 -21.84375 L 18.453125 -34.5 C 18.546875 -34.832031 18.78125 -35 19.15625 -35 L 25.453125 -35 C 25.679688 -35 25.828125 -34.929688 25.890625 -34.796875 C 25.960938 -34.660156 25.96875 -34.492188 25.90625 -34.296875 L 17.203125 -13.75 L 17.15625 -13.453125 L 17.15625 -0.65625 C 17.15625 -0.488281 17.09375 -0.34375 16.96875 -0.21875 C 16.851562 -0.101562 16.710938 -0.046875 16.546875 -0.046875 Z M 10.703125 -0.046875 "/></g></g></g><g fill="#fdfbe9" fill-opacity="1"><g transform="translate(302.908617, 121.499995)"><g><path d="M 13.15625 0.40625 C 10.851562 0.40625 8.832031 0 7.09375 -0.8125 C 5.363281 -1.632812 4.023438 -2.785156 3.078125 -4.265625 C 2.128906 -5.753906 1.65625 -7.46875 1.65625 -9.40625 L 1.65625 -10.703125 C 1.65625 -10.867188 1.710938 -11.007812 1.828125 -11.125 C 1.941406 -11.238281 2.082031 -11.296875 2.25 -11.296875 L 8 -11.296875 C 8.164062 -11.296875 8.304688 -11.238281 8.421875 -11.125 C 8.535156 -11.007812 8.59375 -10.867188 8.59375 -10.703125 L 8.59375 -9.75 C 8.59375 -8.582031 9.023438 -7.609375 9.890625 -6.828125 C 10.765625 -6.046875 11.9375 -5.65625 13.40625 -5.65625 C 14.695312 -5.65625 15.6875 -5.988281 16.375 -6.65625 C 17.0625 -7.320312 17.40625 -8.171875 17.40625 -9.203125 C 17.40625 -9.960938 17.1875 -10.617188 16.75 -11.171875 C 16.3125 -11.722656 15.703125 -12.238281 14.921875 -12.71875 C 14.140625 -13.207031 12.929688 -13.867188 11.296875 -14.703125 C 9.296875 -15.703125 7.660156 -16.632812 6.390625 -17.5 C 5.128906 -18.363281 4.046875 -19.476562 3.140625 -20.84375 C 2.242188 -22.21875 1.796875 -23.867188 1.796875 -25.796875 C 1.796875 -27.734375 2.253906 -29.425781 3.171875 -30.875 C 4.085938 -32.320312 5.378906 -33.4375 7.046875 -34.21875 C 8.710938 -35.007812 10.613281 -35.40625 12.75 -35.40625 C 14.976562 -35.40625 16.957031 -34.976562 18.6875 -34.125 C 20.425781 -33.269531 21.78125 -32.078125 22.75 -30.546875 C 23.71875 -29.015625 24.203125 -27.25 24.203125 -25.25 L 24.203125 -24.25 C 24.203125 -24.082031 24.140625 -23.941406 24.015625 -23.828125 C 23.898438 -23.710938 23.757812 -23.65625 23.59375 -23.65625 L 17.84375 -23.65625 C 17.675781 -23.65625 17.535156 -23.710938 17.421875 -23.828125 C 17.304688 -23.941406 17.25 -24.082031 17.25 -24.25 L 17.25 -25.15625 C 17.25 -26.351562 16.832031 -27.347656 16 -28.140625 C 15.164062 -28.941406 14.03125 -29.34375 12.59375 -29.34375 C 11.394531 -29.34375 10.453125 -29.035156 9.765625 -28.421875 C 9.085938 -27.804688 8.75 -26.945312 8.75 -25.84375 C 8.75 -25.082031 8.945312 -24.414062 9.34375 -23.84375 C 9.75 -23.28125 10.367188 -22.738281 11.203125 -22.21875 C 12.035156 -21.707031 13.300781 -21.035156 15 -20.203125 L 16.046875 -19.59375 C 17.984375 -18.53125 19.492188 -17.609375 20.578125 -16.828125 C 21.660156 -16.046875 22.566406 -15.050781 23.296875 -13.84375 C 24.035156 -12.644531 24.40625 -11.195312 24.40625 -9.5 C 24.40625 -6.46875 23.378906 -4.054688 21.328125 -2.265625 C 19.273438 -0.484375 16.550781 0.40625 13.15625 0.40625 Z M 13.15625 0.40625 "/></g></g></g><g fill="#fdfbe9" fill-opacity="1"><g transform="translate(328.904591, 121.499995)"><g><path d="M 3.25 0 C 3.082031 0 2.941406 -0.0546875 2.828125 -0.171875 C 2.710938 -0.285156 2.65625 -0.425781 2.65625 -0.59375 L 2.65625 -34.40625 C 2.65625 -34.570312 2.710938 -34.710938 2.828125 -34.828125 C 2.941406 -34.941406 3.082031 -35 3.25 -35 L 9.09375 -35 C 9.257812 -35 9.398438 -34.941406 9.515625 -34.828125 C 9.640625 -34.710938 9.703125 -34.570312 9.703125 -34.40625 L 9.703125 -0.59375 C 9.703125 -0.425781 9.640625 -0.285156 9.515625 -0.171875 C 9.398438 -0.0546875 9.257812 0 9.09375 0 Z M 3.25 0 "/></g></g></g><g fill="#fdfbe9" fill-opacity="1"><g transform="translate(341.202686, 121.499995)"><g><path d="M 13.15625 0.40625 C 10.851562 0.40625 8.832031 0 7.09375 -0.8125 C 5.363281 -1.632812 4.023438 -2.785156 3.078125 -4.265625 C 2.128906 -5.753906 1.65625 -7.46875 1.65625 -9.40625 L 1.65625 -10.703125 C 1.65625 -10.867188 1.710938 -11.007812 1.828125 -11.125 C 1.941406 -11.238281 2.082031 -11.296875 2.25 -11.296875 L 8 -11.296875 C 8.164062 -11.296875 8.304688 -11.238281 8.421875 -11.125 C 8.535156 -11.007812 8.59375 -10.867188 8.59375 -10.703125 L 8.59375 -9.75 C 8.59375 -8.582031 9.023438 -7.609375 9.890625 -6.828125 C 10.765625 -6.046875 11.9375 -5.65625 13.40625 -5.65625 C 14.695312 -5.65625 15.6875 -5.988281 16.375 -6.65625 C 17.0625 -7.320312 17.40625 -8.171875 17.40625 -9.203125 C 17.40625 -9.960938 17.1875 -10.617188 16.75 -11.171875 C 16.3125 -11.722656 15.703125 -12.238281 14.921875 -12.71875 C 14.140625 -13.207031 12.929688 -13.867188 11.296875 -14.703125 C 9.296875 -15.703125 7.660156 -16.632812 6.390625 -17.5 C 5.128906 -18.363281 4.046875 -19.476562 3.140625 -20.84375 C 2.242188 -22.21875 1.796875 -23.867188 1.796875 -25.796875 C 1.796875 -27.734375 2.253906 -29.425781 3.171875 -30.875 C 4.085938 -32.320312 5.378906 -33.4375 7.046875 -34.21875 C 8.710938 -35.007812 10.613281 -35.40625 12.75 -35.40625 C 14.976562 -35.40625 16.957031 -34.976562 18.6875 -34.125 C 20.425781 -33.269531 21.78125 -32.078125 22.75 -30.546875 C 23.71875 -29.015625 24.203125 -27.25 24.203125 -25.25 L 24.203125 -24.25 C 24.203125 -24.082031 24.140625 -23.941406 24.015625 -23.828125 C 23.898438 -23.710938 23.757812 -23.65625 23.59375 -23.65625 L 17.84375 -23.65625 C 17.675781 -23.65625 17.535156 -23.710938 17.421875 -23.828125 C 17.304688 -23.941406 17.25 -24.082031 17.25 -24.25 L 17.25 -25.15625 C 17.25 -26.351562 16.832031 -27.347656 16 -28.140625 C 15.164062 -28.941406 14.03125 -29.34375 12.59375 -29.34375 C 11.394531 -29.34375 10.453125 -29.035156 9.765625 -28.421875 C 9.085938 -27.804688 8.75 -26.945312 8.75 -25.84375 C 8.75 -25.082031 8.945312 -24.414062 9.34375 -23.84375 C 9.75 -23.28125 10.367188 -22.738281 11.203125 -22.21875 C 12.035156 -21.707031 13.300781 -21.035156 15 -20.203125 L 16.046875 -19.59375 C 17.984375 -18.53125 19.492188 -17.609375 20.578125 -16.828125 C 21.660156 -16.046875 22.566406 -15.050781 23.296875 -13.84375 C 24.035156 -12.644531 24.40625 -11.195312 24.40625 -9.5 C 24.40625 -6.46875 23.378906 -4.054688 21.328125 -2.265625 C 19.273438 -0.484375 16.550781 0.40625 13.15625 0.40625 Z M 13.15625 0.40625 "/></g></g></g><g fill="#fdfbe9" fill-opacity="1"><g transform="translate(367.198661, 121.499995)"><g/></g></g><g fill="#fdfbe9" fill-opacity="1"><g transform="translate(377.197111, 121.499995)"><g><path d="M 3.25 0 C 3.082031 0 2.941406 -0.0546875 2.828125 -0.171875 C 2.710938 -0.285156 2.65625 -0.425781 2.65625 -0.59375 L 2.65625 -34.40625 C 2.65625 -34.570312 2.710938 -34.710938 2.828125 -34.828125 C 2.941406 -34.941406 3.082031 -35 3.25 -35 L 14 -35 C 16.226562 -35 18.203125 -34.582031 19.921875 -33.75 C 21.640625 -32.914062 22.960938 -31.734375 23.890625 -30.203125 C 24.828125 -28.671875 25.296875 -26.882812 25.296875 -24.84375 L 25.296875 -10.15625 C 25.296875 -8.113281 24.828125 -6.328125 23.890625 -4.796875 C 22.960938 -3.265625 21.640625 -2.082031 19.921875 -1.25 C 18.203125 -0.414062 16.226562 0 14 0 Z M 9.703125 -6.296875 C 9.703125 -6.128906 9.785156 -6.046875 9.953125 -6.046875 L 14.046875 -6.09375 C 15.285156 -6.09375 16.285156 -6.535156 17.046875 -7.421875 C 17.816406 -8.304688 18.21875 -9.484375 18.25 -10.953125 L 18.25 -24.046875 C 18.25 -25.546875 17.863281 -26.738281 17.09375 -27.625 C 16.332031 -28.507812 15.316406 -28.953125 14.046875 -28.953125 L 9.953125 -28.953125 C 9.785156 -28.953125 9.703125 -28.867188 9.703125 -28.703125 Z M 9.703125 -6.296875 "/></g></g></g><g fill="#fdfbe9" fill-opacity="1"><g transform="translate(404.542881, 121.499995)"><g><path d="M 3.25 0 C 3.082031 0 2.941406 -0.0546875 2.828125 -0.171875 C 2.710938 -0.285156 2.65625 -0.425781 2.65625 -0.59375 L 2.65625 -34.40625 C 2.65625 -34.570312 2.710938 -34.710938 2.828125 -34.828125 C 2.941406 -34.941406 3.082031 -35 3.25 -35 L 9.09375 -35 C 9.257812 -35 9.398438 -34.941406 9.515625 -34.828125 C 9.640625 -34.710938 9.703125 -34.570312 9.703125 -34.40625 L 9.703125 -0.59375 C 9.703125 -0.425781 9.640625 -0.285156 9.515625 -0.171875 C 9.398438 -0.0546875 9.257812 0 9.09375 0 Z M 3.25 0 "/></g></g></g><g fill="#fdfbe9" fill-opacity="1"><g transform="translate(416.840976, 121.499995)"><g><path d="M 21.15625 0 C 20.78125 0 20.546875 -0.164062 20.453125 -0.5 L 19.296875 -5.40625 C 19.265625 -5.53125 19.179688 -5.59375 19.046875 -5.59375 L 9.703125 -5.59375 C 9.566406 -5.59375 9.484375 -5.53125 9.453125 -5.40625 L 8.296875 -0.5 C 8.203125 -0.164062 7.988281 0 7.65625 0 L 1.59375 0 C 1.164062 0 1 -0.21875 1.09375 -0.65625 L 10.09375 -34.5 C 10.195312 -34.832031 10.429688 -35 10.796875 -35 L 18.046875 -35 C 18.410156 -35 18.644531 -34.832031 18.75 -34.5 L 27.75 -0.65625 L 27.796875 -0.453125 C 27.796875 -0.148438 27.613281 0 27.25 0 Z M 10.796875 -11.34375 C 10.765625 -11.25 10.78125 -11.175781 10.84375 -11.125 C 10.914062 -11.070312 10.984375 -11.046875 11.046875 -11.046875 L 17.65625 -11.046875 C 17.71875 -11.046875 17.78125 -11.070312 17.84375 -11.125 C 17.914062 -11.175781 17.9375 -11.25 17.90625 -11.34375 L 14.453125 -25.84375 C 14.421875 -25.976562 14.367188 -26.046875 14.296875 -26.046875 C 14.234375 -26.046875 14.1875 -25.976562 14.15625 -25.84375 Z M 10.796875 -11.34375 "/></g></g></g><g fill="#fdfbe9" fill-opacity="1"><g transform="translate(445.686518, 121.499995)"><g><path d="M 19.09375 0 C 18.726562 0 18.5 -0.164062 18.40625 -0.5 L 13.34375 -14.296875 C 13.28125 -14.429688 13.195312 -14.5 13.09375 -14.5 L 9.953125 -14.5 C 9.785156 -14.5 9.703125 -14.414062 9.703125 -14.25 L 9.703125 -0.59375 C 9.703125 -0.425781 9.640625 -0.285156 9.515625 -0.171875 C 9.398438 -0.0546875 9.257812 0 9.09375 0 L 3.25 0 C 3.082031 0 2.941406 -0.0546875 2.828125 -0.171875 C 2.710938 -0.285156 2.65625 -0.425781 2.65625 -0.59375 L 2.65625 -34.40625 C 2.65625 -34.570312 2.710938 -34.710938 2.828125 -34.828125 C 2.941406 -34.941406 3.082031 -35 3.25 -35 L 15.453125 -35 C 17.421875 -35 19.171875 -34.554688 20.703125 -33.671875 C 22.234375 -32.785156 23.414062 -31.539062 24.25 -29.9375 C 25.082031 -28.34375 25.5 -26.515625 25.5 -24.453125 C 25.5 -22.316406 25.03125 -20.460938 24.09375 -18.890625 C 23.164062 -17.328125 21.851562 -16.164062 20.15625 -15.40625 C 19.988281 -15.332031 19.9375 -15.210938 20 -15.046875 L 25.703125 -0.703125 C 25.734375 -0.628906 25.75 -0.546875 25.75 -0.453125 C 25.75 -0.148438 25.566406 0 25.203125 0 Z M 9.953125 -28.953125 C 9.785156 -28.953125 9.703125 -28.867188 9.703125 -28.703125 L 9.703125 -20.15625 C 9.703125 -19.988281 9.785156 -19.90625 9.953125 -19.90625 L 14.296875 -19.90625 C 15.535156 -19.90625 16.535156 -20.3125 17.296875 -21.125 C 18.066406 -21.9375 18.453125 -23.03125 18.453125 -24.40625 C 18.453125 -25.800781 18.066406 -26.90625 17.296875 -27.71875 C 16.535156 -28.539062 15.535156 -28.953125 14.296875 -28.953125 Z M 9.953125 -28.953125 "/></g></g></g><g fill="#fdfbe9" fill-opacity="1"><g transform="translate(472.832314, 121.499995)"><g><path d="M 10.703125 -0.046875 C 10.535156 -0.046875 10.390625 -0.101562 10.265625 -0.21875 C 10.148438 -0.34375 10.09375 -0.488281 10.09375 -0.65625 L 10.09375 -13.453125 L 10.046875 -13.75 L 1.40625 -34.296875 C 1.363281 -34.367188 1.34375 -34.46875 1.34375 -34.59375 C 1.34375 -34.863281 1.507812 -35 1.84375 -35 L 8.15625 -35 C 8.519531 -35 8.75 -34.832031 8.84375 -34.5 L 13.5 -21.84375 C 13.53125 -21.75 13.578125 -21.703125 13.640625 -21.703125 C 13.710938 -21.703125 13.765625 -21.75 13.796875 -21.84375 L 18.453125 -34.5 C 18.546875 -34.832031 18.78125 -35 19.15625 -35 L 25.453125 -35 C 25.679688 -35 25.828125 -34.929688 25.890625 -34.796875 C 25.960938 -34.660156 25.96875 -34.492188 25.90625 -34.296875 L 17.203125 -13.75 L 17.15625 -13.453125 L 17.15625 -0.65625 C 17.15625 -0.488281 17.09375 -0.34375 16.96875 -0.21875 C 16.851562 -0.101562 16.710938 -0.046875 16.546875 -0.046875 Z M 10.703125 -0.046875 "/></g></g></g></svg>