<svg xmlns="http://www.w3.org/2000/svg" xmlns:xlink="http://www.w3.org/1999/xlink" width="500" zoomAndPan="magnify" viewBox="0 0 375 225" height="300" preserveAspectRatio="xMidYMid meet" version="1.0"><defs><g/><clipPath id="1be67fd42d"><path d="M 116.160156 82.5625 L 220.398438 82.5625 L 220.398438 119.15625 L 116.160156 119.15625 Z M 116.160156 82.5625 " clip-rule="nonzero"/></clipPath></defs><rect x="-37.5" width="450" fill="#ffffff" y="-22.5" height="270" fill-opacity="1"/><rect x="-37.5" width="450" fill="#ffffff" y="-22.5" height="270" fill-opacity="1"/><rect x="-37.5" width="450" fill="#fdfbe8" y="-22.5" height="270" fill-opacity="1"/><g fill="#79685f" fill-opacity="1"><g transform="translate(37.177568, 136.283256)"><g><path d="M 7.453125 -0.515625 C 8.972656 -2.378906 10.109375 -4.101562 10.859375 -5.6875 C 11.617188 -7.28125 12 -9.007812 12 -10.875 L 12 -61.578125 C 12 -63.441406 11.617188 -65.164062 10.859375 -66.75 C 10.109375 -68.34375 8.972656 -70.070312 7.453125 -71.9375 L 7.453125 -72.453125 L 21.53125 -72.453125 L 47.609375 -13.046875 L 73.171875 -72.453125 L 85.703125 -72.453125 L 85.703125 -71.9375 C 84.804688 -70.6875 84.046875 -69.128906 83.421875 -67.265625 C 82.796875 -65.410156 82.484375 -63.515625 82.484375 -61.578125 L 82.484375 -10.875 C 82.484375 -8.9375 82.796875 -7.035156 83.421875 -5.171875 C 84.046875 -3.304688 84.804688 -1.753906 85.703125 -0.515625 L 85.703125 0 L 69.453125 0 L 69.453125 -0.515625 C 70.347656 -1.753906 71.101562 -3.304688 71.71875 -5.171875 C 72.34375 -7.035156 72.65625 -8.9375 72.65625 -10.875 L 72.65625 -64.6875 L 44.609375 0 L 42.84375 0 L 14.703125 -63.859375 L 14.703125 -10.875 C 14.703125 -9.007812 15.078125 -7.28125 15.828125 -5.6875 C 16.585938 -4.101562 17.726562 -2.378906 19.25 -0.515625 L 19.25 0 L 7.453125 0 Z M 7.453125 -0.515625 "/></g></g></g><path stroke-linecap="butt" transform="matrix(1.108936, 0, 0, 1.108936, 114.359513, 44.241584)" fill="none" stroke-linejoin="miter" d="M 46.120244 84.026761 C 40.13548 84.026761 34.872834 82.62832 30.332304 79.831438 C 25.788252 77.023989 22.258686 73.07172 19.736561 67.9852 C 17.228526 62.881067 15.974509 56.994934 15.974509 50.326802 C 15.974509 43.67276 17.228526 37.793672 19.736561 32.689539 C 22.258686 27.585406 25.788252 23.63666 30.332304 20.839779 C 34.872834 18.046419 40.13548 16.647978 46.120244 16.647978 C 52.090917 16.647978 57.346518 18.046419 61.89057 20.839779 C 66.4311 23.63666 69.964189 27.585406 72.482791 32.689539 C 75.004916 37.793672 76.265979 43.67276 76.265979 50.326802 C 76.265979 56.994934 75.004916 62.881067 72.482791 67.9852 C 69.964189 73.07172 66.4311 77.023989 61.89057 79.831438 C 57.346518 82.62832 52.090917 84.026761 46.120244 84.026761 Z M 46.120244 81.973131 C 50.160575 81.973131 53.714799 80.638096 56.786437 77.964502 C 59.868643 75.290909 62.246345 71.560559 63.91602 66.776975 C 65.603307 61.975779 66.44519 56.491214 66.44519 50.326802 C 66.44519 44.172958 65.603307 38.706005 63.91602 33.918899 C 62.246345 29.121225 59.868643 25.383831 56.786437 22.710237 C 53.714799 20.036644 50.160575 18.698086 46.120244 18.698086 C 42.065822 18.698086 38.493986 20.036644 35.41178 22.710237 C 32.343664 25.383831 29.965962 29.121225 28.278675 33.918899 C 26.609 38.706005 25.774162 44.172958 25.774162 50.326802 C 25.774162 56.491214 26.609 61.975779 28.278675 66.776975 C 29.965962 71.560559 32.343664 75.290909 35.41178 77.964502 C 38.493986 80.638096 42.065822 81.973131 46.120244 81.973131 Z M 99.032032 82.54378 C 99.838689 81.420095 100.522059 80.021654 101.082139 78.351979 C 101.645743 76.664692 101.927544 74.949224 101.927544 73.202054 L 101.927544 19.631554 L 95.956871 19.631554 C 91.278963 19.631554 87.633154 20.772851 85.019443 23.051922 C 82.405733 25.31338 80.105527 28.747838 78.115302 33.351773 L 77.181834 33.351773 L 79.231941 17.673032 L 133.552738 17.673032 L 135.51126 33.351773 L 134.577792 33.351773 C 132.64745 28.807721 130.378947 25.390876 127.765236 23.097715 C 125.151526 20.786941 121.512761 19.631554 116.852466 19.631554 L 110.790207 19.631554 L 110.790207 73.202054 C 110.790207 74.949224 111.072009 76.664692 111.63209 78.351979 C 112.195693 80.021654 112.879062 81.420095 113.682197 82.54378 L 113.682197 83.001707 L 99.032032 83.001707 Z M 139.903844 82.54378 C 140.706979 81.420095 141.390348 80.021654 141.953951 78.351979 C 142.514032 76.664692 142.795833 74.949224 142.795833 73.202054 L 142.795833 27.472686 C 142.795833 25.725515 142.514032 24.017093 141.953951 22.343895 C 141.390348 20.66013 140.706979 19.254644 139.903844 18.13096 L 139.903844 17.673032 L 163.599843 17.673032 C 169.707894 17.673032 175.273477 18.768536 180.300115 20.956022 C 185.344365 23.125895 189.409354 26.634326 192.49156 31.481315 C 195.577289 36.328304 197.11663 42.608959 197.11663 50.326802 C 197.11663 58.041123 195.577289 64.332346 192.49156 69.193425 C 189.409354 74.036891 185.344365 77.55589 180.300115 79.743375 C 175.273477 81.913248 169.707894 83.001707 163.599843 83.001707 L 139.903844 83.001707 Z M 161.45815 80.948077 C 169.175994 80.948077 175.410856 78.496403 180.166259 73.589531 C 184.935753 68.668569 187.320499 60.911978 187.320499 50.326802 C 187.320499 39.812077 184.935753 32.090711 180.166259 27.152136 C 175.410856 22.199472 169.175994 19.723139 161.45815 19.723139 C 158.48162 19.723139 155.216243 20.188112 151.658496 21.114535 L 151.658496 79.535547 C 155.216243 80.479582 158.48162 80.948077 161.45815 80.948077 Z M 161.45815 80.948077 " stroke="#79685f" stroke-width="1.166666" stroke-opacity="1" stroke-miterlimit="4"/><g clip-path="url(#1be67fd42d)"><path fill="#79685f" d="M 166.917969 119.15625 C 166.359375 119.15625 165.902344 118.679688 165.902344 118.117188 C 165.902344 117.558594 166.378906 117.101562 166.9375 117.101562 C 167.5 117.101562 167.957031 117.578125 167.957031 118.140625 C 167.957031 118.699219 167.5 119.15625 166.917969 119.15625 Z M 170.757812 118.097656 C 170.738281 117.535156 171.195312 117.058594 171.757812 117.039062 C 172.316406 117.015625 172.792969 117.472656 172.816406 118.035156 C 172.835938 118.597656 172.378906 119.074219 171.820312 119.09375 C 171.820312 119.09375 171.796875 119.09375 171.796875 119.09375 C 171.214844 119.117188 170.757812 118.660156 170.757812 118.097656 Z M 162.039062 119.03125 C 161.476562 119.011719 161.019531 118.535156 161.042969 117.953125 C 161.0625 117.390625 161.539062 116.933594 162.121094 116.953125 C 162.683594 116.976562 163.140625 117.453125 163.117188 118.035156 C 163.097656 118.597656 162.640625 119.03125 162.082031 119.03125 C 162.058594 119.03125 162.039062 119.03125 162.039062 119.03125 Z M 175.597656 117.953125 C 175.554688 117.390625 175.992188 116.890625 176.574219 116.871094 C 177.132812 116.828125 177.632812 117.265625 177.652344 117.847656 C 177.695312 118.410156 177.257812 118.90625 176.675781 118.929688 C 176.65625 118.929688 176.636719 118.929688 176.617188 118.929688 C 176.097656 118.90625 175.640625 118.492188 175.597656 117.953125 Z M 157.160156 118.761719 C 156.597656 118.722656 156.164062 118.222656 156.203125 117.660156 C 156.246094 117.101562 156.742188 116.664062 157.304688 116.707031 C 157.863281 116.746094 158.300781 117.246094 158.257812 117.808594 C 158.21875 118.347656 157.761719 118.761719 157.242188 118.761719 C 157.199219 118.761719 157.179688 118.761719 157.160156 118.761719 Z M 180.457031 117.621094 C 180.394531 117.058594 180.832031 116.558594 181.390625 116.496094 C 181.953125 116.457031 182.449219 116.871094 182.511719 117.433594 C 182.554688 117.992188 182.136719 118.492188 181.578125 118.554688 C 181.535156 118.554688 181.515625 118.554688 181.472656 118.554688 C 180.953125 118.554688 180.5 118.160156 180.457031 117.621094 Z M 152.28125 118.324219 C 151.71875 118.265625 151.304688 117.765625 151.367188 117.183594 C 151.429688 116.621094 151.925781 116.207031 152.507812 116.269531 C 153.070312 116.332031 153.484375 116.828125 153.421875 117.410156 C 153.359375 117.929688 152.921875 118.324219 152.402344 118.324219 C 152.363281 118.324219 152.320312 118.324219 152.28125 118.324219 Z M 185.273438 117.121094 C 185.210938 116.558594 185.605469 116.039062 186.167969 115.957031 C 186.726562 115.894531 187.246094 116.289062 187.328125 116.851562 C 187.390625 117.410156 186.996094 117.929688 186.4375 118.015625 C 186.394531 118.015625 186.355469 118.015625 186.3125 118.015625 C 185.792969 118.035156 185.355469 117.640625 185.273438 117.121094 Z M 147.421875 117.683594 C 146.859375 117.597656 146.464844 117.078125 146.546875 116.519531 C 146.632812 115.957031 147.152344 115.5625 147.710938 115.644531 C 148.273438 115.730469 148.667969 116.25 148.582031 116.808594 C 148.5 117.328125 148.066406 117.683594 147.566406 117.683594 C 147.523438 117.703125 147.484375 117.703125 147.421875 117.683594 Z M 190.089844 116.457031 C 189.988281 115.894531 190.382812 115.355469 190.941406 115.269531 C 191.503906 115.167969 192.042969 115.5625 192.125 116.125 C 192.230469 116.683594 191.835938 117.226562 191.273438 117.308594 C 191.210938 117.308594 191.148438 117.328125 191.109375 117.328125 C 190.609375 117.308594 190.175781 116.953125 190.089844 116.457031 Z M 142.582031 116.871094 C 142.023438 116.769531 141.648438 116.226562 141.773438 115.667969 C 141.875 115.105469 142.417969 114.730469 142.976562 114.855469 C 143.539062 114.960938 143.910156 115.5 143.789062 116.0625 C 143.683594 116.558594 143.269531 116.890625 142.769531 116.890625 C 142.726562 116.890625 142.664062 116.890625 142.582031 116.871094 Z M 194.867188 115.582031 C 194.742188 115.023438 195.09375 114.480469 195.65625 114.355469 C 196.214844 114.230469 196.757812 114.585938 196.882812 115.148438 C 197.003906 115.707031 196.652344 116.25 196.09375 116.371094 C 196.007812 116.394531 195.945312 116.394531 195.863281 116.394531 C 195.40625 116.394531 194.972656 116.0625 194.867188 115.582031 Z M 137.785156 115.8125 C 137.226562 115.667969 136.894531 115.125 137.039062 114.566406 C 137.183594 114.003906 137.722656 113.671875 138.285156 113.816406 C 138.84375 113.960938 139.175781 114.503906 139.03125 115.0625 C 138.90625 115.542969 138.492188 115.851562 138.035156 115.851562 C 137.953125 115.851562 137.871094 115.832031 137.785156 115.8125 Z M 199.601562 114.460938 C 199.457031 113.921875 199.765625 113.339844 200.308594 113.191406 C 200.847656 113.046875 201.429688 113.359375 201.574219 113.921875 C 201.71875 114.460938 201.40625 115.042969 200.847656 115.1875 C 200.765625 115.210938 200.660156 115.230469 200.578125 115.230469 C 200.140625 115.230469 199.726562 114.917969 199.601562 114.460938 Z M 133.050781 114.503906 C 132.511719 114.335938 132.199219 113.753906 132.367188 113.214844 C 132.53125 112.671875 133.113281 112.363281 133.652344 112.527344 C 134.195312 112.695312 134.503906 113.277344 134.339844 113.816406 C 134.195312 114.253906 133.800781 114.542969 133.363281 114.542969 C 133.257812 114.542969 133.15625 114.523438 133.050781 114.503906 Z M 204.253906 113.089844 C 204.066406 112.550781 204.335938 111.96875 204.875 111.78125 C 205.414062 111.59375 205.996094 111.863281 206.183594 112.402344 C 206.371094 112.945312 206.101562 113.527344 205.558594 113.710938 C 205.457031 113.753906 205.332031 113.773438 205.207031 113.773438 C 204.792969 113.773438 204.398438 113.503906 204.253906 113.089844 Z M 128.402344 112.839844 C 127.882812 112.632812 127.613281 112.03125 127.839844 111.488281 C 128.046875 110.96875 128.648438 110.699219 129.191406 110.929688 C 129.710938 111.136719 129.980469 111.738281 129.75 112.277344 C 129.585938 112.671875 129.210938 112.921875 128.796875 112.921875 C 128.671875 112.921875 128.527344 112.902344 128.402344 112.839844 Z M 208.777344 111.34375 C 208.53125 110.824219 208.757812 110.222656 209.277344 109.972656 C 209.796875 109.722656 210.398438 109.953125 210.648438 110.472656 C 210.898438 110.992188 210.667969 111.59375 210.148438 111.84375 C 210.003906 111.90625 209.859375 111.945312 209.714844 111.945312 C 209.320312 111.925781 208.945312 111.71875 208.777344 111.34375 Z M 123.894531 110.699219 C 123.398438 110.429688 123.210938 109.785156 123.5 109.285156 C 123.769531 108.789062 124.414062 108.601562 124.914062 108.890625 C 125.410156 109.160156 125.597656 109.804688 125.308594 110.304688 C 125.121094 110.636719 124.765625 110.824219 124.414062 110.824219 C 124.226562 110.84375 124.0625 110.804688 123.894531 110.699219 Z M 213.078125 109.097656 C 212.765625 108.621094 212.871094 107.976562 213.347656 107.664062 C 213.824219 107.355469 214.46875 107.457031 214.78125 107.9375 C 215.089844 108.414062 214.988281 109.058594 214.511719 109.371094 C 214.324219 109.496094 214.136719 109.558594 213.929688 109.558594 C 213.617188 109.558594 213.285156 109.390625 213.078125 109.097656 Z M 119.742188 107.832031 C 119.304688 107.457031 119.265625 106.8125 119.636719 106.378906 C 120.011719 105.941406 120.65625 105.898438 121.09375 106.273438 C 121.527344 106.648438 121.570312 107.292969 121.195312 107.726562 C 120.988281 107.957031 120.699219 108.082031 120.425781 108.082031 C 120.179688 108.101562 119.929688 108.019531 119.742188 107.832031 Z M 216.898438 106.105469 C 216.441406 105.753906 216.378906 105.109375 216.730469 104.652344 C 217.085938 104.195312 217.726562 104.132812 218.183594 104.484375 C 218.640625 104.839844 218.703125 105.484375 218.371094 105.941406 C 218.164062 106.191406 217.875 106.335938 217.5625 106.335938 C 217.3125 106.316406 217.085938 106.253906 216.898438 106.105469 Z M 116.542969 103.632812 C 116.335938 103.113281 116.585938 102.511719 117.105469 102.285156 C 117.625 102.074219 118.226562 102.324219 118.453125 102.84375 C 118.664062 103.363281 118.414062 103.964844 117.894531 104.195312 C 117.769531 104.257812 117.625 104.277344 117.5 104.277344 C 117.085938 104.277344 116.710938 104.027344 116.542969 103.632812 Z M 218.207031 100.847656 C 218.207031 100.847656 218.207031 100.828125 218.207031 100.828125 C 218.207031 100.828125 218.207031 100.808594 218.207031 100.808594 C 218.207031 100.246094 218.664062 99.769531 219.222656 99.769531 C 219.785156 99.769531 220.261719 100.226562 220.261719 100.789062 C 220.261719 100.808594 220.261719 100.808594 220.261719 100.828125 C 220.261719 100.847656 220.261719 100.847656 220.261719 100.871094 C 220.261719 101.429688 219.804688 101.910156 219.222656 101.910156 C 218.664062 101.886719 218.207031 101.429688 218.207031 100.847656 Z M 117.085938 99.5 C 116.566406 99.289062 116.296875 98.6875 116.503906 98.167969 C 116.710938 97.648438 117.3125 97.378906 117.832031 97.585938 C 118.351562 97.792969 118.621094 98.398438 118.414062 98.9375 C 118.246094 99.332031 117.875 99.582031 117.457031 99.582031 C 117.355469 99.5625 117.210938 99.539062 117.085938 99.5 Z M 216.691406 97.003906 C 216.335938 96.546875 216.421875 95.902344 216.855469 95.550781 C 217.292969 95.195312 217.957031 95.28125 218.308594 95.714844 C 218.664062 96.152344 218.578125 96.816406 218.144531 97.171875 C 217.957031 97.316406 217.726562 97.398438 217.5 97.398438 C 217.1875 97.398438 216.875 97.273438 216.691406 97.003906 Z M 119.597656 95.382812 C 119.222656 94.949219 119.265625 94.304688 119.679688 93.929688 C 120.117188 93.554688 120.757812 93.597656 121.132812 94.011719 C 121.507812 94.449219 121.464844 95.09375 121.050781 95.46875 C 120.863281 95.632812 120.613281 95.714844 120.363281 95.714844 C 120.074219 95.738281 119.785156 95.613281 119.597656 95.382812 Z M 213.304688 94.011719 C 212.828125 93.699219 212.703125 93.058594 213.035156 92.578125 C 213.347656 92.101562 213.992188 91.976562 214.46875 92.308594 C 214.945312 92.621094 215.070312 93.265625 214.738281 93.742188 C 214.53125 94.035156 214.21875 94.199219 213.886719 94.199219 C 213.679688 94.179688 213.472656 94.136719 213.304688 94.011719 Z M 123.4375 92.453125 C 123.167969 91.957031 123.335938 91.332031 123.832031 91.042969 C 124.332031 90.769531 124.953125 90.9375 125.246094 91.4375 C 125.515625 91.933594 125.347656 92.558594 124.851562 92.847656 C 124.683594 92.933594 124.519531 92.972656 124.351562 92.972656 C 123.976562 92.972656 123.625 92.785156 123.4375 92.453125 Z M 209.214844 91.726562 C 208.695312 91.476562 208.488281 90.875 208.714844 90.355469 C 208.964844 89.835938 209.566406 89.628906 210.085938 89.855469 C 210.605469 90.105469 210.8125 90.707031 210.585938 91.226562 C 210.417969 91.601562 210.046875 91.832031 209.652344 91.832031 C 209.503906 91.808594 209.359375 91.789062 209.214844 91.726562 Z M 127.777344 90.25 C 127.570312 89.730469 127.820312 89.128906 128.339844 88.902344 C 128.859375 88.691406 129.460938 88.941406 129.6875 89.460938 C 129.894531 89.980469 129.648438 90.582031 129.128906 90.8125 C 129.003906 90.855469 128.878906 90.894531 128.734375 90.894531 C 128.316406 90.894531 127.921875 90.644531 127.777344 90.25 Z M 204.8125 89.917969 C 204.273438 89.730469 204.003906 89.128906 204.191406 88.609375 C 204.375 88.070312 204.980469 87.800781 205.5 87.984375 C 206.039062 88.171875 206.308594 88.777344 206.121094 89.296875 C 205.976562 89.710938 205.582031 89.980469 205.144531 89.980469 C 205.042969 89.980469 204.917969 89.960938 204.8125 89.917969 Z M 132.304688 88.527344 C 132.136719 87.984375 132.429688 87.40625 132.96875 87.238281 C 133.507812 87.070312 134.089844 87.363281 134.257812 87.925781 C 134.421875 88.464844 134.132812 89.046875 133.570312 89.210938 C 133.46875 89.253906 133.363281 89.253906 133.257812 89.253906 C 132.863281 89.253906 132.449219 88.964844 132.304688 88.527344 Z M 200.246094 88.484375 C 199.703125 88.339844 199.371094 87.757812 199.519531 87.21875 C 199.664062 86.675781 200.246094 86.34375 200.785156 86.488281 C 201.324219 86.636719 201.65625 87.21875 201.511719 87.757812 C 201.386719 88.214844 200.972656 88.503906 200.515625 88.503906 C 200.433594 88.527344 200.328125 88.527344 200.246094 88.484375 Z M 136.976562 87.15625 C 136.832031 86.59375 137.183594 86.03125 137.722656 85.910156 C 138.285156 85.761719 138.84375 86.117188 138.96875 86.65625 C 139.113281 87.21875 138.761719 87.777344 138.222656 87.902344 C 138.140625 87.925781 138.054688 87.925781 137.972656 87.925781 C 137.515625 87.945312 137.082031 87.632812 136.976562 87.15625 Z M 195.59375 87.34375 C 195.03125 87.21875 194.679688 86.675781 194.804688 86.117188 C 194.929688 85.554688 195.46875 85.203125 196.03125 85.328125 C 196.589844 85.449219 196.941406 85.992188 196.820312 86.550781 C 196.714844 87.03125 196.277344 87.363281 195.820312 87.363281 C 195.738281 87.363281 195.65625 87.363281 195.59375 87.34375 Z M 141.710938 86.074219 C 141.605469 85.511719 141.960938 84.972656 142.519531 84.871094 C 143.082031 84.765625 143.621094 85.117188 143.726562 85.679688 C 143.828125 86.242188 143.476562 86.78125 142.914062 86.886719 C 142.851562 86.90625 142.789062 86.90625 142.707031 86.90625 C 142.230469 86.90625 141.792969 86.550781 141.710938 86.074219 Z M 190.859375 86.425781 C 190.296875 86.324219 189.925781 85.804688 190.007812 85.242188 C 190.113281 84.683594 190.632812 84.308594 191.191406 84.390625 C 191.753906 84.496094 192.125 85.015625 192.042969 85.574219 C 191.960938 86.074219 191.523438 86.425781 191.027344 86.425781 C 190.984375 86.449219 190.921875 86.449219 190.859375 86.425781 Z M 146.488281 85.203125 C 146.402344 84.640625 146.796875 84.121094 147.359375 84.039062 C 147.917969 83.953125 148.4375 84.351562 148.519531 84.910156 C 148.605469 85.472656 148.210938 85.992188 147.648438 86.074219 C 147.609375 86.074219 147.546875 86.09375 147.503906 86.09375 C 147.003906 86.074219 146.546875 85.722656 146.488281 85.203125 Z M 186.105469 85.722656 C 185.542969 85.660156 185.148438 85.140625 185.210938 84.558594 C 185.273438 83.996094 185.792969 83.601562 186.375 83.664062 C 186.933594 83.726562 187.328125 84.246094 187.265625 84.828125 C 187.203125 85.347656 186.75 85.722656 186.25 85.722656 C 186.1875 85.742188 186.144531 85.742188 186.105469 85.722656 Z M 151.28125 84.535156 C 151.21875 83.976562 151.636719 83.457031 152.195312 83.394531 C 152.757812 83.332031 153.277344 83.746094 153.339844 84.308594 C 153.402344 84.871094 152.984375 85.390625 152.425781 85.449219 C 152.382812 85.449219 152.34375 85.449219 152.320312 85.449219 C 151.800781 85.449219 151.34375 85.078125 151.28125 84.535156 Z M 181.308594 85.203125 C 180.746094 85.160156 180.332031 84.640625 180.375 84.078125 C 180.414062 83.519531 180.933594 83.101562 181.496094 83.144531 C 182.054688 83.1875 182.472656 83.707031 182.429688 84.265625 C 182.386719 84.808594 181.929688 85.203125 181.410156 85.203125 C 181.371094 85.203125 181.347656 85.203125 181.308594 85.203125 Z M 156.121094 84.058594 C 156.078125 83.496094 156.515625 83 157.074219 82.957031 C 157.636719 82.914062 158.136719 83.351562 158.175781 83.914062 C 158.21875 84.472656 157.78125 84.972656 157.222656 85.015625 C 157.199219 85.015625 157.179688 85.015625 157.136719 85.015625 C 156.621094 85.015625 156.164062 84.597656 156.121094 84.058594 Z M 176.511719 84.847656 C 175.949219 84.828125 175.515625 84.328125 175.535156 83.769531 C 175.554688 83.207031 176.054688 82.769531 176.613281 82.792969 C 177.175781 82.8125 177.613281 83.3125 177.589844 83.871094 C 177.570312 84.410156 177.113281 84.847656 176.554688 84.847656 C 176.554688 84.847656 176.53125 84.847656 176.511719 84.847656 Z M 160.980469 83.746094 C 160.960938 83.1875 161.394531 82.707031 161.976562 82.667969 C 162.539062 82.644531 163.015625 83.082031 163.054688 83.664062 C 163.078125 84.226562 162.640625 84.703125 162.058594 84.746094 C 162.039062 84.746094 162.039062 84.746094 162.019531 84.746094 C 161.457031 84.746094 161 84.308594 160.980469 83.746094 Z M 170.675781 83.601562 C 170.699219 83.039062 171.152344 82.582031 171.734375 82.605469 C 172.296875 82.625 172.753906 83.082031 172.730469 83.664062 C 172.710938 84.226562 172.253906 84.683594 171.671875 84.660156 C 171.113281 84.640625 170.675781 84.183594 170.675781 83.601562 Z M 165.816406 83.601562 C 165.816406 83.039062 166.273438 82.5625 166.835938 82.5625 C 167.394531 82.5625 167.875 83.019531 167.875 83.582031 C 167.875 84.140625 167.417969 84.621094 166.855469 84.621094 C 166.296875 84.621094 165.839844 84.164062 165.816406 83.601562 Z M 165.816406 83.601562 " fill-opacity="1" fill-rule="nonzero"/></g><g fill="#79685f" fill-opacity="1"><g transform="translate(122.195978, 167.370438)"><g><path d="M 1.484375 -0.109375 C 1.785156 -0.472656 2.015625 -0.8125 2.171875 -1.125 C 2.328125 -1.445312 2.40625 -1.796875 2.40625 -2.171875 L 2.40625 -12.3125 C 2.40625 -12.6875 2.328125 -13.03125 2.171875 -13.34375 C 2.015625 -13.65625 1.785156 -14 1.484375 -14.375 L 1.484375 -14.484375 L 4.296875 -14.484375 L 9.515625 -2.609375 L 14.625 -14.484375 L 17.125 -14.484375 L 17.125 -14.375 C 16.945312 -14.125 16.796875 -13.8125 16.671875 -13.4375 C 16.546875 -13.070312 16.484375 -12.695312 16.484375 -12.3125 L 16.484375 -2.171875 C 16.484375 -1.785156 16.546875 -1.40625 16.671875 -1.03125 C 16.796875 -0.65625 16.945312 -0.347656 17.125 -0.109375 L 17.125 0 L 13.875 0 L 13.875 -0.109375 C 14.0625 -0.347656 14.210938 -0.65625 14.328125 -1.03125 C 14.453125 -1.40625 14.515625 -1.785156 14.515625 -2.171875 L 14.515625 -12.9375 L 8.921875 0 L 8.5625 0 L 2.9375 -12.765625 L 2.9375 -2.171875 C 2.9375 -1.796875 3.007812 -1.445312 3.15625 -1.125 C 3.3125 -0.8125 3.539062 -0.472656 3.84375 -0.109375 L 3.84375 0 L 1.484375 0 Z M 1.484375 -0.109375 "/></g></g></g><g fill="#79685f" fill-opacity="1"><g transform="translate(140.235973, 167.370438)"><g><path d="M 5.890625 0.234375 C 4.910156 0.234375 4.046875 -0.00390625 3.296875 -0.484375 C 2.546875 -0.960938 1.96875 -1.609375 1.5625 -2.421875 C 1.15625 -3.242188 0.953125 -4.160156 0.953125 -5.171875 C 0.953125 -6.179688 1.15625 -7.09375 1.5625 -7.90625 C 1.96875 -8.726562 2.546875 -9.378906 3.296875 -9.859375 C 4.046875 -10.335938 4.910156 -10.578125 5.890625 -10.578125 C 6.867188 -10.578125 7.734375 -10.335938 8.484375 -9.859375 C 9.242188 -9.378906 9.828125 -8.726562 10.234375 -7.90625 C 10.640625 -7.09375 10.84375 -6.179688 10.84375 -5.171875 C 10.84375 -4.160156 10.640625 -3.242188 10.234375 -2.421875 C 9.828125 -1.609375 9.242188 -0.960938 8.484375 -0.484375 C 7.734375 -0.00390625 6.867188 0.234375 5.890625 0.234375 Z M 5.890625 -0.203125 C 6.828125 -0.203125 7.546875 -0.664062 8.046875 -1.59375 C 8.546875 -2.53125 8.796875 -3.722656 8.796875 -5.171875 C 8.796875 -6.617188 8.546875 -7.804688 8.046875 -8.734375 C 7.546875 -9.671875 6.828125 -10.140625 5.890625 -10.140625 C 4.953125 -10.140625 4.234375 -9.671875 3.734375 -8.734375 C 3.242188 -7.804688 3 -6.617188 3 -5.171875 C 3 -3.722656 3.242188 -2.53125 3.734375 -1.59375 C 4.234375 -0.664062 4.953125 -0.203125 5.890625 -0.203125 Z M 5.890625 -0.203125 "/></g></g></g><g fill="#79685f" fill-opacity="1"><g transform="translate(151.200461, 167.370438)"><g><path d="M 5.890625 0.234375 C 4.910156 0.234375 4.046875 -0.00390625 3.296875 -0.484375 C 2.546875 -0.960938 1.96875 -1.609375 1.5625 -2.421875 C 1.15625 -3.242188 0.953125 -4.160156 0.953125 -5.171875 C 0.953125 -6.179688 1.15625 -7.09375 1.5625 -7.90625 C 1.96875 -8.726562 2.546875 -9.378906 3.296875 -9.859375 C 4.046875 -10.335938 4.910156 -10.578125 5.890625 -10.578125 C 6.867188 -10.578125 7.734375 -10.335938 8.484375 -9.859375 C 9.242188 -9.378906 9.828125 -8.726562 10.234375 -7.90625 C 10.640625 -7.09375 10.84375 -6.179688 10.84375 -5.171875 C 10.84375 -4.160156 10.640625 -3.242188 10.234375 -2.421875 C 9.828125 -1.609375 9.242188 -0.960938 8.484375 -0.484375 C 7.734375 -0.00390625 6.867188 0.234375 5.890625 0.234375 Z M 5.890625 -0.203125 C 6.828125 -0.203125 7.546875 -0.664062 8.046875 -1.59375 C 8.546875 -2.53125 8.796875 -3.722656 8.796875 -5.171875 C 8.796875 -6.617188 8.546875 -7.804688 8.046875 -8.734375 C 7.546875 -9.671875 6.828125 -10.140625 5.890625 -10.140625 C 4.953125 -10.140625 4.234375 -9.671875 3.734375 -8.734375 C 3.242188 -7.804688 3 -6.617188 3 -5.171875 C 3 -3.722656 3.242188 -2.53125 3.734375 -1.59375 C 4.234375 -0.664062 4.953125 -0.203125 5.890625 -0.203125 Z M 5.890625 -0.203125 "/></g></g></g><g fill="#79685f" fill-opacity="1"><g transform="translate(162.164948, 167.370438)"><g><path d="M 5.1875 0.234375 C 4.320312 0.234375 3.570312 0.015625 2.9375 -0.421875 C 2.300781 -0.867188 1.8125 -1.476562 1.46875 -2.25 C 1.132812 -3.019531 0.96875 -3.890625 0.96875 -4.859375 C 0.96875 -5.953125 1.191406 -6.929688 1.640625 -7.796875 C 2.085938 -8.671875 2.691406 -9.351562 3.453125 -9.84375 C 4.210938 -10.332031 5.039062 -10.578125 5.9375 -10.578125 C 7 -10.578125 7.867188 -10.28125 8.546875 -9.6875 L 8.546875 -12.46875 C 8.546875 -12.925781 8.492188 -13.304688 8.390625 -13.609375 C 8.285156 -13.910156 8.125 -14.175781 7.90625 -14.40625 L 7.90625 -14.5 L 10.28125 -15.40625 L 10.390625 -15.40625 L 10.390625 -2.359375 C 10.390625 -1.472656 10.609375 -0.863281 11.046875 -0.53125 L 11.046875 -0.4375 L 8.640625 0.234375 L 8.546875 0.234375 L 8.546875 -1.796875 L 8.4375 -1.796875 C 8.144531 -1.203125 7.722656 -0.710938 7.171875 -0.328125 C 6.617188 0.046875 5.957031 0.234375 5.1875 0.234375 Z M 5.921875 -0.9375 C 6.660156 -0.9375 7.269531 -1.171875 7.75 -1.640625 C 8.238281 -2.109375 8.503906 -2.695312 8.546875 -3.40625 L 8.546875 -7.28125 C 8.503906 -8 8.253906 -8.644531 7.796875 -9.21875 C 7.335938 -9.800781 6.703125 -10.09375 5.890625 -10.09375 C 4.953125 -10.09375 4.210938 -9.664062 3.671875 -8.8125 C 3.128906 -7.957031 2.859375 -6.828125 2.859375 -5.421875 C 2.859375 -4.515625 2.988281 -3.722656 3.25 -3.046875 C 3.507812 -2.367188 3.867188 -1.847656 4.328125 -1.484375 C 4.796875 -1.117188 5.328125 -0.9375 5.921875 -0.9375 Z M 5.921875 -0.9375 "/></g></g></g><g fill="#79685f" fill-opacity="1"><g transform="translate(173.605274, 167.370438)"><g/></g></g><g fill="#79685f" fill-opacity="1"><g transform="translate(177.949411, 167.370438)"><g><path d="M 7.65625 0.234375 C 6.332031 0.234375 5.164062 -0.078125 4.15625 -0.703125 C 3.144531 -1.328125 2.359375 -2.203125 1.796875 -3.328125 C 1.242188 -4.460938 0.96875 -5.765625 0.96875 -7.234375 C 0.96875 -8.710938 1.242188 -10.015625 1.796875 -11.140625 C 2.359375 -12.273438 3.144531 -13.148438 4.15625 -13.765625 C 5.164062 -14.390625 6.332031 -14.703125 7.65625 -14.703125 C 8.976562 -14.703125 10.140625 -14.390625 11.140625 -13.765625 C 12.148438 -13.148438 12.9375 -12.273438 13.5 -11.140625 C 14.0625 -10.015625 14.34375 -8.710938 14.34375 -7.234375 C 14.34375 -5.765625 14.0625 -4.460938 13.5 -3.328125 C 12.9375 -2.203125 12.148438 -1.328125 11.140625 -0.703125 C 10.140625 -0.078125 8.976562 0.234375 7.65625 0.234375 Z M 7.65625 -0.234375 C 8.550781 -0.234375 9.335938 -0.523438 10.015625 -1.109375 C 10.703125 -1.703125 11.234375 -2.53125 11.609375 -3.59375 C 11.984375 -4.65625 12.171875 -5.867188 12.171875 -7.234375 C 12.171875 -8.597656 11.984375 -9.8125 11.609375 -10.875 C 11.234375 -11.9375 10.703125 -12.765625 10.015625 -13.359375 C 9.335938 -13.953125 8.550781 -14.25 7.65625 -14.25 C 6.757812 -14.25 5.96875 -13.953125 5.28125 -13.359375 C 4.601562 -12.765625 4.078125 -11.9375 3.703125 -10.875 C 3.328125 -9.8125 3.140625 -8.597656 3.140625 -7.234375 C 3.140625 -5.867188 3.328125 -4.65625 3.703125 -3.59375 C 4.078125 -2.53125 4.601562 -1.703125 5.28125 -1.109375 C 5.96875 -0.523438 6.757812 -0.234375 7.65625 -0.234375 Z M 7.65625 -0.234375 "/></g></g></g><g fill="#79685f" fill-opacity="1"><g transform="translate(192.430965, 167.370438)"><g><path d="M 1.546875 -0.109375 C 1.910156 -0.597656 2.09375 -1.238281 2.09375 -2.03125 L 2.09375 -8.515625 C 2.09375 -9.222656 1.804688 -9.695312 1.234375 -9.9375 L 1.234375 -10.03125 C 1.628906 -10.195312 1.910156 -10.425781 2.078125 -10.71875 C 2.253906 -11.007812 2.40625 -11.453125 2.53125 -12.046875 C 3.007812 -14.265625 4.363281 -15.375 6.59375 -15.375 L 6.96875 -15.375 L 6.96875 -13.671875 L 5.21875 -13.671875 C 4.550781 -13.671875 4.03125 -13.519531 3.65625 -13.21875 C 3.289062 -12.925781 3.109375 -12.492188 3.109375 -11.921875 C 3.109375 -11.628906 3.175781 -11.328125 3.3125 -11.015625 C 3.445312 -10.703125 3.640625 -10.476562 3.890625 -10.34375 L 6.640625 -10.34375 L 6.4375 -9.6875 L 3.9375 -9.6875 L 3.9375 -2.03125 C 3.9375 -1.238281 4.113281 -0.597656 4.46875 -0.109375 L 4.46875 0 L 1.546875 0 Z M 1.546875 -0.109375 "/></g></g></g><g fill="#79685f" fill-opacity="1"><g transform="translate(198.388813, 167.370438)"><g/></g></g><g fill="#79685f" fill-opacity="1"><g transform="translate(202.732955, 167.370438)"><g><path d="M 4.90625 -0.109375 C 5.082031 -0.347656 5.234375 -0.65625 5.359375 -1.03125 C 5.484375 -1.40625 5.546875 -1.785156 5.546875 -2.171875 L 5.546875 -14.046875 L 4.21875 -14.046875 C 3.1875 -14.046875 2.378906 -13.789062 1.796875 -13.28125 C 1.222656 -12.78125 0.710938 -12.019531 0.265625 -11 L 0.0625 -11 L 0.515625 -14.484375 L 12.5625 -14.484375 L 12.984375 -11 L 12.78125 -11 C 12.351562 -12.007812 11.847656 -12.769531 11.265625 -13.28125 C 10.691406 -13.789062 9.890625 -14.046875 8.859375 -14.046875 L 7.515625 -14.046875 L 7.515625 -2.171875 C 7.515625 -1.785156 7.570312 -1.40625 7.6875 -1.03125 C 7.8125 -0.65625 7.96875 -0.347656 8.15625 -0.109375 L 8.15625 0 L 4.90625 0 Z M 4.90625 -0.109375 "/></g></g></g><g fill="#79685f" fill-opacity="1"><g transform="translate(214.959448, 167.370438)"><g><path d="M 1.453125 -0.109375 C 1.804688 -0.597656 1.984375 -1.238281 1.984375 -2.03125 L 1.984375 -12.46875 C 1.984375 -12.925781 1.925781 -13.304688 1.8125 -13.609375 C 1.707031 -13.910156 1.546875 -14.175781 1.328125 -14.40625 L 1.328125 -14.5 L 3.71875 -15.40625 L 3.828125 -15.40625 L 3.828125 -8.484375 L 3.9375 -8.484375 C 4.207031 -9.097656 4.628906 -9.597656 5.203125 -9.984375 C 5.785156 -10.378906 6.460938 -10.578125 7.234375 -10.578125 C 8.285156 -10.578125 9.117188 -10.234375 9.734375 -9.546875 C 10.359375 -8.859375 10.671875 -7.976562 10.671875 -6.90625 L 10.671875 -2.03125 C 10.671875 -1.238281 10.851562 -0.597656 11.21875 -0.109375 L 11.21875 0 L 8.296875 0 L 8.296875 -0.109375 C 8.648438 -0.597656 8.828125 -1.238281 8.828125 -2.03125 L 8.828125 -6.890625 C 8.828125 -7.609375 8.609375 -8.203125 8.171875 -8.671875 C 7.734375 -9.140625 7.15625 -9.375 6.4375 -9.375 C 5.71875 -9.375 5.101562 -9.140625 4.59375 -8.671875 C 4.082031 -8.210938 3.828125 -7.617188 3.828125 -6.890625 L 3.828125 -2.03125 C 3.828125 -1.238281 4.003906 -0.597656 4.359375 -0.109375 L 4.359375 0 L 1.453125 0 Z M 1.453125 -0.109375 "/></g></g></g><g fill="#79685f" fill-opacity="1"><g transform="translate(226.689412, 167.370438)"><g><path d="M 10.03125 -3.296875 C 9.8125 -2.242188 9.316406 -1.390625 8.546875 -0.734375 C 7.785156 -0.0859375 6.859375 0.234375 5.765625 0.234375 C 4.859375 0.234375 4.039062 0.03125 3.3125 -0.375 C 2.59375 -0.789062 2.019531 -1.382812 1.59375 -2.15625 C 1.175781 -2.925781 0.96875 -3.832031 0.96875 -4.875 C 0.96875 -6.007812 1.195312 -7.007812 1.65625 -7.875 C 2.113281 -8.738281 2.71875 -9.40625 3.46875 -9.875 C 4.226562 -10.34375 5.046875 -10.578125 5.921875 -10.578125 C 6.734375 -10.578125 7.4375 -10.394531 8.03125 -10.03125 C 8.625 -9.675781 9.070312 -9.203125 9.375 -8.609375 C 9.6875 -8.023438 9.84375 -7.390625 9.84375 -6.703125 L 2.5625 -6.703125 L 2.5625 -6.5 C 2.5625 -5.363281 2.734375 -4.398438 3.078125 -3.609375 C 3.421875 -2.828125 3.894531 -2.234375 4.5 -1.828125 C 5.101562 -1.429688 5.78125 -1.234375 6.53125 -1.234375 C 7.3125 -1.234375 7.988281 -1.414062 8.5625 -1.78125 C 9.144531 -2.15625 9.566406 -2.660156 9.828125 -3.296875 Z M 5.25 -9.953125 C 4.570312 -9.953125 3.984375 -9.71875 3.484375 -9.25 C 2.992188 -8.78125 2.703125 -8.078125 2.609375 -7.140625 L 7.875 -7.140625 C 7.769531 -8.035156 7.492188 -8.726562 7.046875 -9.21875 C 6.609375 -9.707031 6.007812 -9.953125 5.25 -9.953125 Z M 5.25 -9.953125 "/></g></g></g><g fill="#79685f" fill-opacity="1"><g transform="translate(236.660858, 167.370438)"><g/></g></g><g fill="#79685f" fill-opacity="1"><g transform="translate(241.005, 167.370438)"><g><path d="M 1.734375 -0.109375 C 1.910156 -0.347656 2.0625 -0.65625 2.1875 -1.03125 C 2.3125 -1.40625 2.375 -1.785156 2.375 -2.171875 L 2.375 -12.3125 C 2.375 -12.695312 2.3125 -13.070312 2.1875 -13.4375 C 2.0625 -13.8125 1.910156 -14.125 1.734375 -14.375 L 1.734375 -14.484375 L 7 -14.484375 C 8.34375 -14.484375 9.570312 -14.238281 10.6875 -13.75 C 11.8125 -13.269531 12.710938 -12.492188 13.390625 -11.421875 C 14.078125 -10.347656 14.421875 -8.953125 14.421875 -7.234375 C 14.421875 -5.523438 14.078125 -4.132812 13.390625 -3.0625 C 12.710938 -1.988281 11.8125 -1.207031 10.6875 -0.71875 C 9.570312 -0.238281 8.34375 0 7 0 L 1.734375 0 Z M 6.515625 -0.453125 C 8.222656 -0.453125 9.601562 -0.992188 10.65625 -2.078125 C 11.71875 -3.171875 12.25 -4.890625 12.25 -7.234375 C 12.25 -9.566406 11.71875 -11.28125 10.65625 -12.375 C 9.601562 -13.476562 8.222656 -14.03125 6.515625 -14.03125 C 5.859375 -14.03125 5.132812 -13.925781 4.34375 -13.71875 L 4.34375 -0.765625 C 5.132812 -0.554688 5.859375 -0.453125 6.515625 -0.453125 Z M 6.515625 -0.453125 "/></g></g></g><g fill="#79685f" fill-opacity="1"><g transform="translate(255.569301, 167.370438)"><g><path d="M 9.6875 -0.4375 C 9.570312 -0.238281 9.382812 -0.078125 9.125 0.046875 C 8.875 0.171875 8.597656 0.234375 8.296875 0.234375 C 7.828125 0.234375 7.441406 0.117188 7.140625 -0.109375 C 6.847656 -0.347656 6.695312 -0.695312 6.6875 -1.15625 L 6.65625 -1.40625 L 6.578125 -1.40625 C 6.273438 -0.882812 5.867188 -0.476562 5.359375 -0.1875 C 4.859375 0.09375 4.269531 0.234375 3.59375 0.234375 C 2.78125 0.234375 2.144531 0.0351562 1.6875 -0.359375 C 1.226562 -0.765625 1 -1.285156 1 -1.921875 C 1 -2.671875 1.269531 -3.289062 1.8125 -3.78125 C 2.363281 -4.28125 3.070312 -4.644531 3.9375 -4.875 C 4.800781 -5.113281 5.71875 -5.234375 6.6875 -5.234375 L 6.6875 -6.9375 C 6.6875 -7.675781 6.441406 -8.289062 5.953125 -8.78125 C 5.472656 -9.269531 4.84375 -9.515625 4.0625 -9.515625 C 3.4375 -9.515625 2.890625 -9.363281 2.421875 -9.0625 C 1.953125 -8.757812 1.585938 -8.34375 1.328125 -7.8125 L 1.109375 -7.8125 C 1.335938 -8.65625 1.78125 -9.328125 2.4375 -9.828125 C 3.101562 -10.328125 3.890625 -10.578125 4.796875 -10.578125 C 5.941406 -10.578125 6.847656 -10.238281 7.515625 -9.5625 C 8.179688 -8.882812 8.515625 -8.007812 8.515625 -6.9375 L 8.515625 -1.15625 C 8.515625 -0.90625 8.570312 -0.71875 8.6875 -0.59375 C 8.8125 -0.46875 8.960938 -0.40625 9.140625 -0.40625 C 9.378906 -0.40625 9.523438 -0.445312 9.578125 -0.53125 Z M 4.609375 -0.75 C 5.222656 -0.75 5.722656 -0.972656 6.109375 -1.421875 C 6.492188 -1.867188 6.6875 -2.375 6.6875 -2.9375 L 6.6875 -4.796875 C 5.519531 -4.773438 4.601562 -4.550781 3.9375 -4.125 C 3.269531 -3.707031 2.9375 -3.125 2.9375 -2.375 C 2.9375 -1.84375 3.101562 -1.4375 3.4375 -1.15625 C 3.769531 -0.882812 4.160156 -0.75 4.609375 -0.75 Z M 4.609375 -0.75 "/></g></g></g><g fill="#79685f" fill-opacity="1"><g transform="translate(264.940779, 167.370438)"><g><path d="M 0.765625 2.40625 L 1.796875 2.40625 C 2.679688 2.40625 3.394531 2.21875 3.9375 1.84375 C 4.488281 1.476562 4.945312 0.882812 5.3125 0.0625 L 1.484375 -8.46875 C 1.171875 -9.175781 0.78125 -9.765625 0.3125 -10.234375 L 0.3125 -10.34375 L 3.640625 -10.34375 L 3.640625 -10.234375 C 3.429688 -9.960938 3.328125 -9.644531 3.328125 -9.28125 C 3.328125 -9.007812 3.40625 -8.6875 3.5625 -8.3125 L 6.203125 -2.15625 L 8.640625 -8.21875 C 8.785156 -8.570312 8.859375 -8.894531 8.859375 -9.1875 C 8.859375 -9.65625 8.710938 -10.003906 8.421875 -10.234375 L 8.421875 -10.34375 L 10.640625 -10.34375 L 10.640625 -10.234375 C 10.015625 -9.785156 9.535156 -9.144531 9.203125 -8.3125 L 5.359375 1.140625 C 5.097656 1.796875 4.804688 2.335938 4.484375 2.765625 C 4.160156 3.191406 3.703125 3.53125 3.109375 3.78125 C 2.515625 4.039062 1.734375 4.171875 0.765625 4.171875 Z M 0.765625 2.40625 "/></g></g></g></svg>