<svg width="905" height="905" viewBox="0 0 905 905" fill="none" xmlns="http://www.w3.org/2000/svg">
<path d="M642.091 0H262.9C98.1916 0 0 98.1916 0 262.9V641.639C0 806.8 98.1916 904.991 262.9 904.991H641.639C806.347 904.991 904.539 806.8 904.539 642.091V262.9C904.991 98.1916 806.8 0 642.091 0ZM533.492 588.244C546.615 601.367 546.615 623.087 533.492 636.209C526.705 642.996 518.108 646.164 509.51 646.164C500.913 646.164 492.315 642.996 485.528 636.209L325.797 476.478C312.675 463.356 312.675 441.636 325.797 428.513L485.528 268.782C498.65 255.66 520.37 255.66 533.492 268.782C546.615 281.905 546.615 303.625 533.492 316.747L397.744 452.496L533.492 588.244Z" fill="#625151"/>
</svg>
