<svg width="905" height="905" viewBox="0 0 905 905" fill="none" xmlns="http://www.w3.org/2000/svg">
<path opacity="0.4" d="M642.091 0H262.9C98.1916 0 0 98.1916 0 262.9V641.639C0 806.8 98.1916 904.991 262.9 904.991H641.639C806.347 904.991 904.539 806.8 904.539 642.091V262.9C904.991 98.1916 806.8 0 642.091 0Z" fill="#625151"/>
<path d="M509.506 646.173C500.908 646.173 492.311 643.005 485.524 636.218L325.793 476.487C312.671 463.365 312.671 441.645 325.793 428.522L485.524 268.79C498.646 255.667 520.366 255.667 533.488 268.79C546.61 281.912 546.61 303.632 533.488 316.754L397.739 452.505L533.488 588.253C546.61 601.376 546.61 623.095 533.488 636.218C527.153 643.005 518.556 646.173 509.506 646.173Z" fill="#625151"/>
</svg>
