<svg width="905" height="905" viewBox="0 0 905 905" fill="none" xmlns="http://www.w3.org/2000/svg">
<path opacity="0.4" d="M642.091 0H262.9C98.1916 0 0 98.1916 0 262.9V641.639C0 806.8 98.1916 904.991 262.9 904.991H641.639C806.347 904.991 904.539 806.8 904.539 642.091V262.9C904.991 98.1916 806.8 0 642.091 0Z" fill="#625151"/>
<path d="M395.467 646.173C386.87 646.173 378.273 643.005 371.485 636.218C358.362 623.095 358.362 601.376 371.485 588.253L507.234 452.505L371.485 316.754C358.362 303.632 358.362 281.912 371.485 268.79C384.608 255.667 406.327 255.667 419.45 268.79L579.181 428.522C592.303 441.645 592.303 463.365 579.181 476.487L419.45 636.218C412.662 643.005 404.065 646.173 395.467 646.173Z" fill="#625151"/>
</svg>
