<svg width="905" height="905" viewBox="0 0 905 905" fill="none" xmlns="http://www.w3.org/2000/svg">
<path d="M642.091 0H262.9C98.1916 0 0 98.1916 0 262.9V641.639C0 806.8 98.1916 904.991 262.9 904.991H641.639C806.347 904.991 904.539 806.8 904.539 642.091V262.9C904.991 98.1916 806.8 0 642.091 0ZM578.742 476.478L419.011 636.209C412.224 642.996 403.626 646.164 395.029 646.164C386.431 646.164 377.834 642.996 371.046 636.209C357.924 623.087 357.924 601.367 371.046 588.244L506.795 452.496L371.046 316.747C357.924 303.625 357.924 281.905 371.046 268.782C384.169 255.66 405.889 255.66 419.011 268.782L578.742 428.513C592.317 441.636 592.317 463.356 578.742 476.478Z" fill="#625151"/>
</svg>
