<svg width="427" height="427" viewBox="0 0 427 427" fill="none" xmlns="http://www.w3.org/2000/svg">
<path d="M20 20L406.44 406.44" stroke="#625151" stroke-width="40" stroke-linecap="round" stroke-linejoin="round"/>
<path d="M181.017 184.819C174.336 192.387 170.282 202.331 170.282 213.22C170.282 236.932 189.505 256.158 213.22 256.158C224.109 256.158 234.051 252.104 241.621 245.423" stroke="#625151" stroke-width="40" stroke-linecap="round" stroke-linejoin="round"/>
<path d="M113.644 117.922C77.5371 143.224 47.4574 179.273 20 213.22C60.5453 277.433 133.392 342.033 213.22 342.033C246.495 342.033 278.558 330.809 307.574 313.067" stroke="#625151" stroke-width="40" stroke-linecap="round" stroke-linejoin="round"/>
<path d="M213.22 84.4066C299.276 84.4066 357.094 152.21 406.44 213.22C399.602 224.047 391.848 234.886 383.297 245.423" stroke="#625151" stroke-width="40" stroke-linecap="round" stroke-linejoin="round"/>
</svg>
