<svg width="current" height="current" viewBox="0 0 382 382" fill="none" xmlns="http://www.w3.org/2000/svg">
<path d="M0 190.951C0 296.611 85.2917 381.903 190.951 381.903C296.611 381.903 381.903 296.611 381.903 190.951C381.903 85.2917 296.611 0 190.951 0C85.2917 0 0 85.2917 0 190.951Z" fill="#FFDD67"/>
<path d="M290.882 226.595C290.882 281.335 365.354 281.335 365.354 226.595C365.354 186.496 328.436 147.669 328.436 147.669C328.436 147.669 290.882 186.496 290.882 226.595Z" fill="#65B1EF"/>
<path d="M232.324 241.872C249.901 241.872 264.149 227.623 264.149 210.047C264.149 192.47 249.901 178.221 232.324 178.221C214.748 178.221 200.499 192.47 200.499 210.047C200.499 227.623 214.748 241.872 232.324 241.872Z" fill="#664E27"/>
<path d="M85.9282 241.872C103.505 241.872 117.753 227.623 117.753 210.047C117.753 192.47 103.505 178.221 85.9282 178.221C68.3516 178.221 54.1029 192.47 54.1029 210.047C54.1029 227.623 68.3516 241.872 85.9282 241.872Z" fill="#664E27"/>
<path d="M118.389 113.934C98.021 131.12 70.6513 138.758 43.9181 133.666C40.099 133.029 36.9165 146.396 41.3721 147.669C71.9243 153.398 103.75 144.486 127.3 124.755C130.483 121.572 120.935 111.388 118.389 113.934ZM274.333 133.029C247.6 137.485 220.23 130.483 199.862 113.298C197.316 110.752 187.132 120.936 190.951 124.118C214.501 144.486 246.327 152.761 276.879 147.033C281.334 145.759 278.152 132.393 274.333 133.029Z" fill="#917524"/>
<path d="M229.778 288.337C192.86 278.789 153.397 285.791 122.208 307.432C114.57 313.16 129.21 332.892 136.848 327.8C157.216 313.16 190.314 303.613 224.049 312.524C232.324 314.433 239.325 291.519 229.778 288.337Z" fill="#664E27"/>
</svg>
