<svg width="current" height="current" viewBox="0 0 382 382" fill="none" xmlns="http://www.w3.org/2000/svg">
<path d="M98.6833 378.18C142.636 378.18 178.267 373.904 178.267 368.63C178.267 363.356 142.636 359.08 98.6833 359.08C54.7306 359.08 19.1 363.356 19.1 368.63C19.1 373.904 54.7306 378.18 98.6833 378.18Z" fill="#65B1EF"/>
<path d="M267.4 382C330.692 382 382 376.869 382 370.54C382 364.211 330.692 359.08 267.4 359.08C204.108 359.08 152.8 364.211 152.8 370.54C152.8 376.869 204.108 382 267.4 382Z" fill="#65B1EF"/>
<path d="M191 382C296.486 382 382 296.486 382 191C382 85.5136 296.486 0 191 0C85.5136 0 0 85.5136 0 191C0 296.486 85.5136 382 191 382Z" fill="#FFDD67"/>
<path d="M271.857 280.133C262.943 257.213 241.297 241.933 191 241.933C140.067 241.933 119.057 257.213 110.143 280.133C105.687 292.23 112.053 311.967 112.053 311.967C120.33 336.797 119.057 343.8 191 343.8C262.943 343.8 261.67 336.797 269.947 311.967C269.947 311.967 276.95 292.23 271.857 280.133Z" fill="#664E27"/>
<path d="M248.3 273.767C248.937 271.857 248.3 269.947 247.027 268.673C247.027 268.673 234.293 254.667 191 254.667C147.707 254.667 134.973 268.673 134.973 268.673C133.7 269.31 133.7 271.857 133.7 273.767L134.973 277.587C135.61 279.497 136.883 280.77 138.157 280.77H243.843C245.117 280.77 247.027 279.497 247.027 277.587L248.3 273.767Z" fill="white"/>
<path d="M270.583 372.45H313.877C366.083 309.42 304.327 245.117 319.607 182.723C304.963 182.723 290.32 198.64 276.313 198.64C255.94 259.123 322.79 309.42 270.583 372.45ZM111.417 372.45H68.1233C15.9167 309.42 77.6734 245.117 62.3934 182.723C77.0367 182.723 91.68 198.64 105.687 198.64C126.06 259.123 59.21 309.42 111.417 372.45Z" fill="#65B1EF"/>
<path d="M246.391 103.777C265.491 122.877 292.231 132.427 318.971 129.88C322.791 129.243 324.701 143.25 320.244 143.887C289.047 146.433 258.487 135.61 236.841 113.327C233.021 110.143 243.844 101.23 246.391 103.777ZM63.6673 129.88C90.4073 132.427 117.147 122.877 136.247 103.777C138.794 101.23 149.617 110.143 146.434 113.327C124.787 135.61 93.5907 146.433 63.0307 143.887C57.3007 143.887 59.8473 129.88 63.6673 129.88Z" fill="#917524"/>
<path d="M215.83 180.177C242.57 231.11 296.686 231.11 323.426 180.177C324.7 177.63 321.516 176.357 317.06 173.81C290.32 194.82 246.39 192.91 222.196 173.81C218.376 176.357 214.556 177.63 215.83 180.177ZM58.5731 180.177C85.3131 231.11 139.43 231.11 166.17 180.177C167.443 177.63 164.26 176.357 159.803 173.81C133.063 194.82 89.1331 192.91 64.9398 173.81C60.4831 176.357 57.2998 177.63 58.5731 180.177Z" fill="#664E27"/>
</svg>
