<svg width="current" height="current" viewBox="0 0 382 382" fill="none" xmlns="http://www.w3.org/2000/svg">
<path d="M381.903 190.985C381.903 296.534 296.701 381.737 191.152 381.737C85.6027 381.737 0.400513 296.534 0.400513 190.985C0.400513 85.4365 85.6027 0.234375 191.152 0.234375C296.701 0.234375 381.903 85.4365 381.903 190.985Z" fill="#FFDD67"/>
<path d="M380.631 71.4483C377.452 54.2807 367.915 40.2923 352.019 35.8415C334.851 31.3906 319.591 37.749 304.967 53.0091C296.701 30.1189 283.984 12.9513 263.637 4.0496C243.29 -4.85212 222.944 1.50625 210.227 17.4022C196.874 33.9339 191.788 60.0033 205.776 93.7026C219.129 125.494 278.262 189.078 280.169 190.986C282.712 189.714 348.839 148.385 364.735 128.038C380.631 108.327 383.81 88.6159 380.631 71.4483ZM172.077 17.4022C159.36 1.50625 139.013 -4.85212 118.666 4.0496C98.3196 12.9513 85.6029 30.1189 77.337 53.0091C62.0769 38.3848 46.8168 31.3906 29.6492 36.4773C14.3891 40.9282 4.21571 54.9166 1.03653 72.0842C-2.14266 88.6159 1.67237 108.963 16.9325 128.674C33.4642 148.385 99.5913 189.714 102.135 190.986C104.042 189.078 163.175 125.494 176.528 93.7026C190.516 60.0033 185.429 34.5698 172.077 17.4022Z" fill="#F46767"/>
<path d="M299.244 229.772C299.244 224.685 296.065 218.327 287.799 216.419C265.545 211.969 233.117 208.154 191.152 208.154C149.186 208.154 116.759 212.604 94.5044 216.419C85.6027 218.327 83.0593 224.685 83.0593 229.772C83.0593 276.188 118.666 322.604 191.152 322.604C263.637 321.968 299.244 275.552 299.244 229.772Z" fill="#664E27"/>
<path d="M271.903 231.044C257.914 228.5 228.666 224.685 191.151 224.685C153.637 224.685 124.388 228.5 110.4 231.044C102.134 232.315 101.498 235.494 102.134 240.581C102.77 243.124 102.77 246.939 104.042 250.755C104.678 254.57 105.949 256.477 112.308 255.841C124.388 254.57 258.55 254.57 270.631 255.841C276.989 256.477 277.625 254.57 278.897 250.755C279.533 246.939 280.169 243.76 280.804 240.581C280.804 235.494 280.169 232.315 271.903 231.044Z" fill="white"/>
</svg>
