<svg width="382" height="382" viewBox="0 0 382 382" fill="none" xmlns="http://www.w3.org/2000/svg">
<path d="M2.97273 223.713C21.4207 327.404 120.022 396.743 224.349 378.295C328.039 359.847 397.378 261.246 378.93 156.919C360.482 53.8646 261.245 -15.4745 157.554 2.97355C53.8638 20.7854 -15.4753 120.023 2.97273 223.713Z" fill="#FFDD67"/>
<path d="M256.791 176.003C274.357 176.003 288.598 161.763 288.598 144.196C288.598 126.63 274.357 112.39 256.791 112.39C239.225 112.39 224.984 126.63 224.984 144.196C224.984 161.763 239.225 176.003 256.791 176.003Z" fill="#664E27"/>
<path d="M112.388 201.449C129.954 201.449 144.195 187.208 144.195 169.642C144.195 152.076 129.954 137.835 112.388 137.835C94.8215 137.835 80.5811 152.076 80.5811 169.642C80.5811 187.208 94.8215 201.449 112.388 201.449Z" fill="#664E27"/>
<path d="M262.516 252.976C225.62 243.434 186.179 250.432 155.009 272.06C147.375 277.786 162.006 297.506 169.64 292.417C189.996 277.786 223.075 268.243 256.791 277.149C265.061 279.058 272.058 256.157 262.516 252.976Z" fill="#664E27"/>
</svg>
